<svg width="161" height="39" viewBox="0 0 161 39" fill="none" xmlns="http://www.w3.org/2000/svg">
<path d="M1.875 21V4.15H4.075V19.175H11.275V21H1.875ZM13.692 21V4.35C14.742 4.175 16.117 4.025 17.867 4.025C20.017 4.025 21.592 4.525 22.592 5.425C23.492 6.225 24.067 7.45 24.067 8.95C24.067 10.475 23.617 11.675 22.767 12.55C21.592 13.775 19.742 14.4 17.617 14.4C16.967 14.4 16.367 14.375 15.867 14.25V21H13.692ZM15.867 5.925V12.475C16.342 12.6 16.942 12.65 17.667 12.65C20.292 12.65 21.892 11.35 21.892 9.075C21.892 6.825 20.292 5.75 17.917 5.75C16.967 5.75 16.242 5.825 15.867 5.925ZM26.9977 21V4.35C28.0477 4.175 29.4227 4.025 31.1727 4.025C33.3227 4.025 34.8977 4.525 35.8977 5.425C36.7977 6.225 37.3727 7.45 37.3727 8.95C37.3727 10.475 36.9227 11.675 36.0727 12.55C34.8977 13.775 33.0477 14.4 30.9227 14.4C30.2727 14.4 29.6727 14.375 29.1727 14.25V21H26.9977ZM29.1727 5.925V12.475C29.6477 12.6 30.2477 12.65 30.9727 12.65C33.5977 12.65 35.1977 11.35 35.1977 9.075C35.1977 6.825 33.5977 5.75 31.2227 5.75C30.2727 5.75 29.5477 5.825 29.1727 5.925ZM47.1033 3.85C51.7283 3.85 54.7033 7.375 54.7033 12.4C54.7033 18.175 51.1783 21.275 46.8783 21.275C42.4033 21.275 39.3033 17.8 39.3033 12.7C39.3033 7.35 42.6033 3.85 47.1033 3.85ZM47.0283 5.625C43.4033 5.625 41.6033 8.975 41.6033 12.65C41.6033 16.275 43.5533 19.5 47.0033 19.5C50.4533 19.5 52.4033 16.325 52.4033 12.5C52.4033 9.125 50.6533 5.625 47.0283 5.625ZM72.1396 21L71.7396 13.6C71.6146 11.25 71.4646 8.4 71.4646 6.325H71.4146C70.8146 8.275 70.1396 10.4 69.2896 12.725L66.3146 20.9H64.6646L61.9146 12.875C61.1146 10.475 60.4646 8.325 59.9896 6.325H59.9396C59.8896 8.425 59.7646 11.225 59.6146 13.775L59.1646 21H57.0896L58.2646 4.15H61.0396L63.9146 12.3C64.6146 14.375 65.1646 16.225 65.6146 17.975H65.6646C66.1146 16.275 66.7146 14.425 67.4646 12.3L70.4646 4.15H73.2396L74.2896 21H72.1396Z" fill="#1874A5"/>
<path d="M1.71 36V29.26H2.94V34.97H5.71V36H1.71ZM10.6142 33.91H7.35422C7.38422 34.79 8.06422 35.17 8.85422 35.17C9.42422 35.17 9.82422 35.08 10.2042 34.95L10.3842 35.79C9.96422 35.97 9.38422 36.1 8.68422 36.1C7.10422 36.1 6.17422 35.13 6.17422 33.64C6.17422 32.29 6.99422 31.02 8.55422 31.02C10.1342 31.02 10.6542 32.32 10.6542 33.39C10.6542 33.62 10.6342 33.8 10.6142 33.91ZM7.35422 33.05H9.49422C9.50422 32.6 9.30422 31.86 8.48422 31.86C7.72422 31.86 7.40422 32.55 7.35422 33.05ZM15.4205 33.08V34.83C15.4205 35.27 15.4405 35.7 15.5005 36H14.3905L14.3005 35.46H14.2705C13.9805 35.84 13.4705 36.11 12.8305 36.11C11.8505 36.11 11.3005 35.4 11.3005 34.66C11.3005 33.44 12.3905 32.81 14.1905 32.82V32.74C14.1905 32.42 14.0605 31.89 13.2005 31.89C12.7205 31.89 12.2205 32.04 11.8905 32.25L11.6505 31.45C12.0105 31.23 12.6405 31.02 13.4105 31.02C14.9705 31.02 15.4205 32.01 15.4205 33.08ZM14.2205 34.29V33.62C13.3505 33.61 12.5205 33.79 12.5205 34.53C12.5205 35.01 12.8305 35.23 13.2205 35.23C13.7205 35.23 14.0705 34.91 14.1905 34.56C14.2205 34.47 14.2205 34.38 14.2205 34.29ZM19.9786 28.9H21.2086V34.63C21.2086 35.13 21.2286 35.67 21.2486 36H20.1586L20.0986 35.23H20.0786C19.7886 35.77 19.1986 36.11 18.4986 36.11C17.3286 36.11 16.4086 35.12 16.4086 33.62C16.3986 31.99 17.4186 31.02 18.5886 31.02C19.2586 31.02 19.7386 31.29 19.9586 31.65H19.9786V28.9ZM19.9786 33.89V33.16C19.9786 33.06 19.9686 32.93 19.9486 32.83C19.8386 32.36 19.4486 31.97 18.8886 31.97C18.0986 31.97 17.6586 32.67 17.6586 33.57C17.6586 34.47 18.0986 35.12 18.8786 35.12C19.3786 35.12 19.8186 34.78 19.9386 34.25C19.9686 34.14 19.9786 34.02 19.9786 33.89ZM23.7591 36H22.5291V31.13H23.7591V36ZM23.1491 29.1C23.5691 29.1 23.8291 29.39 23.8391 29.77C23.8391 30.13 23.5691 30.43 23.1391 30.43C22.7291 30.43 22.4591 30.13 22.4591 29.77C22.4591 29.39 22.7391 29.1 23.1491 29.1ZM25.0877 36V32.58C25.0877 32.02 25.0677 31.55 25.0477 31.13H26.1177L26.1777 31.86H26.2077C26.4277 31.48 26.9577 31.02 27.7677 31.02C28.6177 31.02 29.4977 31.57 29.4977 33.11V36H28.2677V33.25C28.2677 32.55 28.0077 32.02 27.3377 32.02C26.8477 32.02 26.5077 32.37 26.3777 32.74C26.3377 32.84 26.3177 32.99 26.3177 33.13V36H25.0877ZM35.2204 32.53V35.29C35.2204 36.31 35.0104 37.04 34.5004 37.5C34.0004 37.95 33.2904 38.09 32.6204 38.09C32.0004 38.09 31.3404 37.95 30.9204 37.7L31.1904 36.77C31.5004 36.95 32.0204 37.14 32.6104 37.14C33.4104 37.14 34.0104 36.72 34.0104 35.67V35.25H33.9904C33.7104 35.68 33.2204 35.97 32.5704 35.97C31.3604 35.97 30.5004 34.97 30.5004 33.59C30.5004 31.99 31.5404 31.02 32.7104 31.02C33.4604 31.02 33.8904 31.38 34.1204 31.78H34.1404L34.1904 31.13H35.2604C35.2404 31.46 35.2204 31.86 35.2204 32.53ZM33.9904 33.87V33.08C33.9904 32.96 33.9804 32.85 33.9504 32.75C33.8204 32.3 33.4704 31.96 32.9504 31.96C32.2604 31.96 31.7504 32.56 31.7504 33.55C31.7504 34.38 32.1704 35.05 32.9404 35.05C33.4004 35.05 33.8004 34.75 33.9404 34.3C33.9804 34.18 33.9904 34.01 33.9904 33.87ZM39.8431 36H38.6131V31.13H39.8431V36ZM39.2331 29.1C39.6531 29.1 39.9131 29.39 39.9231 29.77C39.9231 30.13 39.6531 30.43 39.2231 30.43C38.8131 30.43 38.5431 30.13 38.5431 29.77C38.5431 29.39 38.8231 29.1 39.2331 29.1ZM41.1717 36V32.58C41.1717 32.02 41.1517 31.55 41.1317 31.13H42.2017L42.2617 31.86H42.2917C42.5117 31.48 43.0417 31.02 43.8517 31.02C44.7017 31.02 45.5817 31.57 45.5817 33.11V36H44.3517V33.25C44.3517 32.55 44.0917 32.02 43.4217 32.02C42.9317 32.02 42.5917 32.37 42.4617 32.74C42.4217 32.84 42.4017 32.99 42.4017 33.13V36H41.1717ZM49.0147 29.26H50.2447V31.96H53.0947V29.26H54.3247V36H53.0947V33.03H50.2447V36H49.0147V29.26ZM59.4634 33.08V34.83C59.4634 35.27 59.4834 35.7 59.5434 36H58.4334L58.3434 35.46H58.3134C58.0234 35.84 57.5134 36.11 56.8734 36.11C55.8934 36.11 55.3434 35.4 55.3434 34.66C55.3434 33.44 56.4334 32.81 58.2334 32.82V32.74C58.2334 32.42 58.1034 31.89 57.2434 31.89C56.7634 31.89 56.2634 32.04 55.9334 32.25L55.6934 31.45C56.0534 31.23 56.6834 31.02 57.4534 31.02C59.0134 31.02 59.4634 32.01 59.4634 33.08ZM58.2634 34.29V33.62C57.3934 33.61 56.5634 33.79 56.5634 34.53C56.5634 35.01 56.8734 35.23 57.2634 35.23C57.7634 35.23 58.1134 34.91 58.2334 34.56C58.2634 34.47 58.2634 34.38 58.2634 34.29ZM60.7616 36V28.9H61.9916V36H60.7616ZM67.1099 33.08V34.83C67.1099 35.27 67.1299 35.7 67.1899 36H66.0799L65.9899 35.46H65.9599C65.6699 35.84 65.1599 36.11 64.5199 36.11C63.5399 36.11 62.9899 35.4 62.9899 34.66C62.9899 33.44 64.0799 32.81 65.8799 32.82V32.74C65.8799 32.42 65.7499 31.89 64.8899 31.89C64.4099 31.89 63.9099 32.04 63.5799 32.25L63.3399 31.45C63.6999 31.23 64.3299 31.02 65.0999 31.02C66.6599 31.02 67.1099 32.01 67.1099 33.08ZM65.9099 34.29V33.62C65.0399 33.61 64.2099 33.79 64.2099 34.53C64.2099 35.01 64.5199 35.23 64.9099 35.23C65.4099 35.23 65.7599 34.91 65.8799 34.56C65.9099 34.47 65.9099 34.38 65.9099 34.29ZM68.408 36V28.9H69.638V36H68.408ZM76.5767 34.09H74.4467L73.8667 36H72.5967L74.7567 29.26H76.3267L78.5167 36H77.1867L76.5767 34.09ZM74.6467 33.16H76.3767L75.8467 31.5C75.7167 31.09 75.6067 30.63 75.5067 30.24H75.4867C75.3867 30.63 75.2767 31.1 75.1667 31.5L74.6467 33.16ZM79.0651 35.76L79.3151 34.86C79.5851 35.03 80.1151 35.22 80.5551 35.22C81.0951 35.22 81.3351 34.99 81.3351 34.67C81.3351 34.34 81.1351 34.18 80.5351 33.96C79.5851 33.64 79.1951 33.12 79.1951 32.54C79.1951 31.68 79.9051 31.02 81.0351 31.02C81.5751 31.02 82.0451 31.15 82.3351 31.31L82.0851 32.17C81.8851 32.05 81.4851 31.89 81.0551 31.89C80.6151 31.89 80.3751 32.11 80.3751 32.41C80.3751 32.72 80.6051 32.86 81.2251 33.09C82.1151 33.4 82.5151 33.85 82.5251 34.57C82.5251 35.46 81.8351 36.1 80.5451 36.1C79.9551 36.1 79.4251 35.96 79.0651 35.76ZM83.235 35.76L83.485 34.86C83.755 35.03 84.285 35.22 84.725 35.22C85.265 35.22 85.505 34.99 85.505 34.67C85.505 34.34 85.305 34.18 84.705 33.96C83.755 33.64 83.365 33.12 83.365 32.54C83.365 31.68 84.075 31.02 85.205 31.02C85.745 31.02 86.215 31.15 86.505 31.31L86.255 32.17C86.055 32.05 85.655 31.89 85.225 31.89C84.785 31.89 84.545 32.11 84.545 32.41C84.545 32.72 84.775 32.86 85.395 33.09C86.285 33.4 86.685 33.85 86.695 34.57C86.695 35.46 86.005 36.1 84.715 36.1C84.125 36.1 83.595 35.96 83.235 35.76ZM92.0649 31.13V34.54C92.0649 35.12 92.0849 35.6 92.1049 36H91.0349L90.9749 35.27H90.9449C90.7349 35.61 90.2549 36.11 89.3749 36.11C88.4949 36.11 87.6849 35.58 87.6849 33.99V31.13H88.9149V33.78C88.9149 34.59 89.1749 35.11 89.8249 35.11C90.3249 35.11 90.6449 34.77 90.7649 34.45C90.8149 34.35 90.8349 34.21 90.8349 34.07V31.13H92.0649ZM93.3983 36V32.7C93.3983 32.04 93.3883 31.56 93.3583 31.13H94.4183L94.4683 32.05H94.4983C94.7383 31.37 95.3083 31.02 95.8383 31.02C95.9583 31.02 96.0283 31.03 96.1283 31.05V32.2C96.0183 32.18 95.9083 32.17 95.7583 32.17C95.1783 32.17 94.7683 32.54 94.6583 33.1C94.6383 33.21 94.6283 33.34 94.6283 33.47V36H93.3983ZM100.655 33.08V34.83C100.655 35.27 100.675 35.7 100.735 36H99.6248L99.5348 35.46H99.5048C99.2148 35.84 98.7048 36.11 98.0648 36.11C97.0848 36.11 96.5348 35.4 96.5348 34.66C96.5348 33.44 97.6248 32.81 99.4248 32.82V32.74C99.4248 32.42 99.2948 31.89 98.4348 31.89C97.9548 31.89 97.4548 32.04 97.1248 32.25L96.8848 31.45C97.2448 31.23 97.8748 31.02 98.6448 31.02C100.205 31.02 100.655 32.01 100.655 33.08ZM99.4548 34.29V33.62C98.5848 33.61 97.7548 33.79 97.7548 34.53C97.7548 35.01 98.0648 35.23 98.4548 35.23C98.9548 35.23 99.3048 34.91 99.4248 34.56C99.4548 34.47 99.4548 34.38 99.4548 34.29ZM101.953 36V32.58C101.953 32.02 101.933 31.55 101.913 31.13H102.983L103.043 31.86H103.073C103.293 31.48 103.823 31.02 104.633 31.02C105.483 31.02 106.363 31.57 106.363 33.11V36H105.133V33.25C105.133 32.55 104.873 32.02 104.203 32.02C103.713 32.02 103.373 32.37 103.243 32.74C103.203 32.84 103.183 32.99 103.183 33.13V36H101.953ZM111.086 34.94L111.256 35.85C110.996 35.97 110.486 36.1 109.876 36.1C108.356 36.1 107.366 35.12 107.366 33.61C107.366 32.15 108.366 31.02 110.076 31.02C110.526 31.02 110.986 31.12 111.266 31.24L111.046 32.17C110.846 32.07 110.556 31.98 110.116 31.98C109.176 31.98 108.616 32.67 108.626 33.56C108.626 34.56 109.276 35.13 110.116 35.13C110.536 35.13 110.846 35.04 111.086 34.94ZM116.21 33.91H112.95C112.98 34.79 113.66 35.17 114.45 35.17C115.02 35.17 115.42 35.08 115.8 34.95L115.98 35.79C115.56 35.97 114.98 36.1 114.28 36.1C112.7 36.1 111.77 35.13 111.77 33.64C111.77 32.29 112.59 31.02 114.15 31.02C115.73 31.02 116.25 32.32 116.25 33.39C116.25 33.62 116.23 33.8 116.21 33.91ZM112.95 33.05H115.09C115.1 32.6 114.9 31.86 114.08 31.86C113.32 31.86 113 32.55 112.95 33.05ZM119.056 35.68L119.336 34.66C119.726 34.89 120.336 35.09 120.966 35.09C121.746 35.09 122.186 34.72 122.186 34.17C122.186 33.66 121.846 33.36 120.996 33.05C119.876 32.65 119.166 32.06 119.166 31.09C119.166 29.98 120.086 29.15 121.556 29.15C122.286 29.15 122.816 29.31 123.166 29.49L122.876 30.48C122.626 30.35 122.156 30.16 121.526 30.16C120.746 30.16 120.416 30.57 120.416 30.97C120.416 31.49 120.806 31.73 121.706 32.08C122.876 32.52 123.436 33.11 123.436 34.08C123.436 35.17 122.616 36.11 120.886 36.11C120.166 36.11 119.426 35.91 119.056 35.68ZM126.761 31.02C128.211 31.02 129.181 32.04 129.181 33.52C129.181 35.31 127.921 36.11 126.681 36.11C125.311 36.11 124.241 35.17 124.241 33.6C124.241 32 125.291 31.02 126.761 31.02ZM126.731 31.91C125.861 31.91 125.511 32.76 125.511 33.57C125.511 34.51 125.981 35.22 126.721 35.22C127.421 35.22 127.911 34.54 127.911 33.55C127.911 32.79 127.571 31.91 126.731 31.91ZM130.195 36V28.9H131.425V36H130.195ZM137.124 31.13V34.54C137.124 35.12 137.144 35.6 137.164 36H136.094L136.034 35.27H136.004C135.794 35.61 135.314 36.11 134.434 36.11C133.554 36.11 132.744 35.58 132.744 33.99V31.13H133.974V33.78C133.974 34.59 134.234 35.11 134.884 35.11C135.384 35.11 135.704 34.77 135.824 34.45C135.874 34.35 135.894 34.21 135.894 34.07V31.13H137.124ZM138.657 30.22L139.867 29.88V31.13H141.037V32.05H139.867V34.2C139.867 34.8 140.027 35.1 140.497 35.1C140.717 35.1 140.837 35.09 140.977 35.05L140.997 35.98C140.817 36.05 140.487 36.11 140.107 36.11C139.647 36.11 139.277 35.96 139.047 35.71C138.777 35.43 138.657 34.98 138.657 34.34V32.05H137.967V31.13H138.657V30.22ZM143.193 36H141.963V31.13H143.193V36ZM142.583 29.1C143.003 29.1 143.263 29.39 143.273 29.77C143.273 30.13 143.003 30.43 142.573 30.43C142.163 30.43 141.893 30.13 141.893 29.77C141.893 29.39 142.173 29.1 142.583 29.1ZM146.731 31.02C148.181 31.02 149.151 32.04 149.151 33.52C149.151 35.31 147.891 36.11 146.651 36.11C145.281 36.11 144.211 35.17 144.211 33.6C144.211 32 145.261 31.02 146.731 31.02ZM146.701 31.91C145.831 31.91 145.481 32.76 145.481 33.57C145.481 34.51 145.951 35.22 146.691 35.22C147.391 35.22 147.881 34.54 147.881 33.55C147.881 32.79 147.541 31.91 146.701 31.91ZM150.166 36V32.58C150.166 32.02 150.146 31.55 150.126 31.13H151.196L151.256 31.86H151.286C151.506 31.48 152.036 31.02 152.846 31.02C153.696 31.02 154.576 31.57 154.576 33.11V36H153.346V33.25C153.346 32.55 153.086 32.02 152.416 32.02C151.926 32.02 151.586 32.37 151.456 32.74C151.416 32.84 151.396 32.99 151.396 33.13V36H150.166ZM155.589 35.76L155.839 34.86C156.109 35.03 156.639 35.22 157.079 35.22C157.619 35.22 157.859 34.99 157.859 34.67C157.859 34.34 157.659 34.18 157.059 33.96C156.109 33.64 155.719 33.12 155.719 32.54C155.719 31.68 156.429 31.02 157.559 31.02C158.099 31.02 158.569 31.15 158.859 31.31L158.609 32.17C158.409 32.05 158.009 31.89 157.579 31.89C157.139 31.89 156.899 32.11 156.899 32.41C156.899 32.72 157.129 32.86 157.749 33.09C158.639 33.4 159.039 33.85 159.049 34.57C159.049 35.46 158.359 36.1 157.069 36.1C156.479 36.1 155.949 35.96 155.589 35.76Z" fill="black"/>
</svg>
