<?xml version="1.0" encoding="UTF-8"?>
<svg id="Layer_1" data-name="Layer 1" xmlns="http://www.w3.org/2000/svg" viewBox="0 0 950 950">
  <defs>
    <style>
      .cls-1 {
        fill: #2d2c2b;
      }

      .cls-1, .cls-2, .cls-3 {
        stroke-width: 0px;
      }

      .cls-2 {
        fill: #079247;
      }

      .cls-3 {
        fill: #fff;
      }
    </style>
  </defs>
  <g>
    <path class="cls-2" d="M475.33,150.35c179.58,0,325.16,145.58,325.16,325.15s-145.58,325.15-325.16,325.15-325.15-145.57-325.15-325.15S295.76,150.35,475.33,150.35h0ZM475.33,150.35"/>
    <g>
      <path class="cls-1" d="M115.96,495.14l-33.72-11.22-1.41-20.23,1.36-.09.12,1.61c.1,1.46.43,2.62,1.01,3.46.39.59,1,1.04,1.84,1.35.6.22,2.14.25,4.61.08l32.78-2.3c2.53-.17,4.12-.42,4.73-.73.63-.31,1.14-.91,1.56-1.77.43-.87.59-1.99.5-3.39l-.12-1.61,1.36-.09,1.81,25.97-1.36.1-.11-1.63c-.11-1.46-.45-2.61-1.02-3.46-.39-.58-1.01-1.04-1.87-1.34-.6-.23-2.14-.26-4.65-.08l-36.85,2.58,46.69,15.89.06.89-43.68,22.52,35.03-2.45c2.43-.17,3.94-.34,4.5-.5,1.19-.4,2.15-1.17,2.84-2.29.7-1.12.98-2.81.81-5.09l1.35-.09,1.18,17.02-1.35.09-.03-.5c-.05-1.11-.32-2.13-.75-3.04-.45-.93-1.01-1.62-1.67-2.06-.67-.45-1.6-.75-2.76-.95-.28-.03-1.51.03-3.75.18l-31.47,2.2c-2.52.18-4.07.43-4.67.73-.61.32-1.12.92-1.54,1.77-.41.88-.58,2-.48,3.39l.11,1.58-1.36.1-1.42-20.32,31.8-16.26ZM130.16,382.25l-4.26,17.08,4.2,3.21c1.41,1.06,2.61,1.71,3.64,1.97,1.36.34,2.5.03,3.4-.9.55-.54,1.22-2.05,2.05-4.52l1.31.33-4.01,16.08-1.32-.32c.17-1.79-.19-3.41-1.1-4.82-.89-1.41-2.98-3.41-6.25-5.95l-34.28-26.93.16-.68,44.02-7.54c4.18-.73,6.88-1.51,8.11-2.33.95-.63,1.66-1.66,2.15-3.12l1.32.33-5.84,23.41-1.31-.33.23-.96c.47-1.88.54-3.28.2-4.16-.25-.61-.73-1.02-1.45-1.2-.42-.11-.88-.14-1.37-.11-.23,0-1.22.12-2.94.4l-6.67,1.08ZM127.21,382.81l-18.45,3.04,14.8,11.58,3.65-14.62ZM130.64,290.71l-1.18-.68,13.24-22.95,1.18.69-.81,1.4c-.74,1.27-1.1,2.41-1.09,3.44,0,.7.25,1.42.79,2.15.37.54,1.64,1.43,3.8,2.68l21.13,12.2c4.14,2.39,6.92,4.54,8.32,6.45,1.41,1.91,2.12,4.28,2.17,7.13.05,2.84-.79,5.74-2.51,8.71-2.09,3.63-4.74,6.01-7.95,7.15-3.21,1.14-5.96,1.05-8.28-.29-1.48-.86-2.42-2.01-2.81-3.46-.4-1.44-.22-2.83.54-4.15.74-1.29,1.79-2.14,3.12-2.55,1.35-.4,2.62-.26,3.83.45.59.34,1.07.72,1.43,1.13.17.2.5.85,1.03,1.93.51,1.08.97,1.72,1.33,1.94.55.31,1.18.31,1.9,0,1.07-.45,1.98-1.34,2.72-2.63.52-.92.72-1.8.59-2.66-.13-.86-.6-1.7-1.45-2.53-.84-.8-3.52-2.51-8.02-5.11l-23.08-13.33c-2.21-1.27-3.67-1.96-4.35-2.03-.69-.07-1.45.13-2.27.61-.83.48-1.59,1.32-2.28,2.51l-1.05,1.82ZM190.56,209.08l14.59,14.09.69-.71c2.19-2.27,3.07-4.6,2.64-7.01-.45-2.4-1.93-5.09-4.43-8.06l.97-1,18.77,18.12-.96,1c-2.27-1.75-4.36-2.93-6.33-3.51-1.96-.58-3.6-.64-4.92-.17-1.31.47-2.79,1.56-4.44,3.27l10.1,9.75c1.98,1.9,3.25,2.98,3.86,3.24.6.26,1.26.31,1.99.11.72-.18,1.57-.79,2.57-1.81l2.06-2.14c3.24-3.35,5.05-6.78,5.44-10.31.4-3.51-.56-7.24-2.88-11.19l.95-.98,9.84,12.61-29.94,31-.98-.94,1.16-1.2c.99-1.03,1.62-2.05,1.86-3.04.2-.7.12-1.46-.26-2.29-.21-.6-1.23-1.77-3.03-3.51l-23.59-22.77c-1.62-1.57-2.66-2.48-3.12-2.75-.78-.43-1.57-.55-2.37-.41-1.14.2-2.27.87-3.39,2.03l-1.15,1.2-.98-.95,28.98-30.01,10.61,10.23-.97,1.01c-3.09-1.98-5.63-3.07-7.66-3.23-2.02-.17-4.11.33-6.28,1.52-1.27.68-3.21,2.37-5.83,5.1l-3.57,3.7ZM311.37,154.12l6.84,16.22-38.71,21.46-.66-1.19,1.46-.8c1.26-.7,2.16-1.49,2.67-2.37.4-.61.54-1.37.44-2.27-.05-.63-.68-2.04-1.89-4.24l-15.9-28.67c-1.23-2.23-2.13-3.57-2.67-3.99-.54-.43-1.28-.65-2.24-.66-.95-.02-2.03.31-3.25.98l-1.46.81-.65-1.2,23.25-12.89.66,1.19-1.9,1.05c-1.27.71-2.15,1.49-2.69,2.37-.38.61-.54,1.36-.46,2.28.05.64.68,2.06,1.89,4.25l15.39,27.77c1.23,2.23,2.16,3.58,2.74,4.04.61.46,1.35.66,2.28.53.64-.1,1.98-.73,4.04-1.86l3.64-2.02c2.31-1.28,4.02-2.76,5.12-4.43,1.08-1.66,1.7-3.69,1.84-6.07.16-2.4-.22-5.57-1.11-9.57l1.32-.73ZM387.8,142.62l.36,1.31-25.18,6.75-.35-1.32,1.6-.43c1.4-.37,2.46-.93,3.17-1.65.53-.5.85-1.2.96-2.09.12-.62-.15-2.15-.79-4.57l-8.49-31.67c-.66-2.46-1.21-3.96-1.64-4.52-.42-.55-1.08-.95-2.01-1.18-.91-.25-2.04-.19-3.4.17l-1.6.43-.35-1.32,25.17-6.75.36,1.32-1.6.43c-1.39.37-2.46.93-3.17,1.65-.53.51-.86,1.19-.99,2.1-.11.63.16,2.16.81,4.57l8.48,31.67c.65,2.46,1.2,3.96,1.63,4.5.45.55,1.12.94,2.04,1.19.92.26,2.05.21,3.4-.16l1.6-.43ZM463.85,81.19l1.57,16.53-1.51.11c-.99-4.1-2.96-7.32-5.92-9.67-2.95-2.34-6.04-3.39-9.26-3.17-2.49.18-4.43.98-5.77,2.42-1.37,1.43-1.99,3.02-1.88,4.77.08,1.08.42,2.05.99,2.87.78,1.09,2,2.16,3.65,3.17,1.21.73,3.95,1.97,8.25,3.73,6.02,2.46,10.13,4.9,12.34,7.29,2.2,2.41,3.4,5.24,3.63,8.52.28,4.15-1.08,7.84-4.11,11.06-3.04,3.22-7.05,5.01-12.03,5.36-1.56.11-3.07.05-4.47-.17-1.41-.23-3.21-.71-5.38-1.43-1.2-.42-2.18-.59-2.94-.53-.64.05-1.3.33-1.97.87-.67.54-1.2,1.33-1.57,2.36l-1.35.09-1.32-18.77,1.36-.09c1.45,5.2,3.79,9.08,7.06,11.65,3.26,2.56,6.67,3.72,10.21,3.47,2.74-.19,4.86-1.09,6.39-2.7,1.53-1.61,2.22-3.4,2.08-5.38-.08-1.18-.47-2.29-1.18-3.36-.69-1.03-1.72-2.02-3.06-2.93-1.35-.89-3.68-2.03-7.02-3.39-4.67-1.91-8.06-3.57-10.14-5-2.1-1.42-3.74-3.07-4.94-4.92-1.2-1.85-1.89-3.95-2.04-6.28-.28-3.95.94-7.43,3.66-10.42,2.72-2.99,6.29-4.63,10.71-4.94,1.61-.12,3.19-.03,4.73.25,1.17.21,2.61.66,4.31,1.35,1.71.67,2.9.99,3.55.95.63-.04,1.12-.28,1.45-.69.36-.42.63-1.37.84-2.89l1.1-.07ZM650.19,123.39l22.5,12.47-.66,1.19-1.13-.62c-1.69-.93-2.95-1.4-3.78-1.41-.83,0-1.55.25-2.16.71-.61.48-1.62,1.97-2.99,4.44l-11.83,21.35c-2.17,3.9-3.3,6.64-3.42,8.25-.1,1.59.28,3.17,1.17,4.76s2.36,2.95,4.42,4.09c2.37,1.31,4.67,1.89,6.92,1.75,2.26-.14,4.3-.91,6.16-2.33,1.85-1.41,4.07-4.42,6.63-9.06l9.86-17.77c1.08-1.95,1.65-3.46,1.7-4.53.06-1.06-.13-1.92-.58-2.58-.69-1.02-1.91-2.03-3.68-3.01l.66-1.19,15.08,8.36-.66,1.19-.9-.5c-1.22-.67-2.37-.99-3.46-.94-1.08.04-2.09.45-2.99,1.23-.66.54-1.49,1.69-2.47,3.46l-9.17,16.57c-2.85,5.12-5.24,8.64-7.16,10.53-1.94,1.9-4.74,3.07-8.41,3.53-3.67.47-7.78-.56-12.3-3.07-3.76-2.09-6.4-4.21-7.91-6.37-2.04-2.92-3.04-5.77-3.03-8.56.04-2.79,1.06-5.98,3.07-9.62l11.84-21.34c1.38-2.51,2.12-4.14,2.18-4.91.06-.76-.16-1.51-.65-2.26-.47-.75-1.64-1.61-3.5-2.62l.66-1.19ZM750.7,242.36l-13.89,10.81-30.75-31.85.98-.94,1.15,1.19c1.01,1.04,2,1.7,2.98,1.98.69.22,1.46.17,2.3-.17.6-.21,1.8-1.18,3.61-2.93l23.58-22.77c1.84-1.77,2.89-2.98,3.17-3.61.26-.65.29-1.42.06-2.34-.23-.91-.83-1.88-1.8-2.9l-1.14-1.18.98-.95,18.47,19.13-.98.95-1.51-1.56c-1.01-1.04-1.99-1.7-2.99-1.98-.69-.22-1.46-.17-2.32.14-.6.22-1.81,1.19-3.61,2.93l-22.85,22.06c-1.83,1.77-2.9,3-3.19,3.7-.3.7-.29,1.47.07,2.33.26.6,1.22,1.74,2.85,3.42l2.89,2.99c1.84,1.9,3.71,3.17,5.6,3.8,1.89.62,4.01.69,6.34.22,2.35-.46,5.32-1.65,8.96-3.54l1.04,1.08ZM792.98,312.08l-8.27-15.53-5.27.42c-1.75.15-3.09.47-4.01.97-1.24.66-1.89,1.64-1.94,2.94-.05.77.46,2.35,1.51,4.73l-1.2.63-7.78-14.63,1.2-.64c1.08,1.45,2.42,2.41,4.04,2.84,1.6.46,4.49.54,8.64.24l43.48-2.93.34.62-27.66,35.05c-2.61,3.34-4.11,5.73-4.48,7.16-.28,1.11-.12,2.35.49,3.76l-1.19.63-11.33-21.3,1.2-.64.46.88c.92,1.71,1.8,2.79,2.64,3.22.6.29,1.22.27,1.88-.08.39-.21.75-.48,1.09-.83.17-.15.81-.9,1.92-2.27l4.24-5.26ZM794.8,309.7l11.68-14.61-18.75,1.3,7.07,13.31ZM829.23,411.15l34.85,7.02,3.86,19.91-1.33.26-.31-1.59c-.27-1.44-.75-2.54-1.42-3.31-.46-.53-1.13-.91-1.99-1.12-.63-.14-2.15.02-4.57.48l-32.27,6.28c-2.5.48-4.03.93-4.61,1.3-.59.4-1.02,1.04-1.33,1.94-.31.92-.34,2.06-.07,3.43l.31,1.59-1.33.26-4.97-25.56,1.33-.26.31,1.6c.28,1.44.75,2.55,1.43,3.32.45.53,1.12.91,2.02,1.11.62.15,2.16-.02,4.62-.5l36.26-7.05-48.29-10.08-.17-.88,40.61-27.66-34.47,6.7c-2.4.46-3.88.81-4.41,1.04-1.13.55-1.99,1.43-2.53,2.62-.56,1.2-.63,2.91-.19,5.15l-1.33.26-3.25-16.76,1.32-.26.11.51c.17,1.09.56,2.07,1.11,2.92.55.88,1.2,1.49,1.91,1.84.72.36,1.68.55,2.85.61.27,0,1.51-.21,3.7-.64l30.96-6.02c2.48-.48,3.99-.91,4.56-1.29.56-.39,1-1.04,1.31-1.94.31-.92.33-2.06.07-3.42l-.3-1.55,1.34-.26,3.88,19.99-29.59,20.02ZM828.97,524.92l2.15-17.47-4.57-2.68c-1.52-.88-2.8-1.37-3.84-1.51-1.4-.17-2.49.26-3.28,1.31-.48.6-.96,2.18-1.48,4.74l-1.34-.17,2.02-16.45,1.35.17c.06,1.8.6,3.37,1.68,4.65,1.05,1.29,3.37,3.01,6.94,5.14l37.3,22.55-.08.69-42.76,12.85c-4.06,1.23-6.65,2.33-7.78,3.31-.85.74-1.44,1.85-1.75,3.35l-1.34-.17,2.94-23.94,1.35.16-.12.98c-.23,1.93-.12,3.32.31,4.15.32.58.85.93,1.59,1.02.43.05.89.03,1.36-.06.23-.02,1.19-.27,2.87-.76l6.49-1.87ZM831.84,524.01l17.93-5.27-16.1-9.69-1.84,14.96ZM831.84,524.01"/>
      <path class="cls-1" d="M141.23,681.71l-1.18.68-13.09-22.67,1.18-.68.84,1.44c.72,1.26,1.54,2.14,2.42,2.65.61.38,1.37.51,2.27.38.65-.04,2.05-.69,4.24-1.96l28.52-16.47c2.22-1.27,3.54-2.19,3.95-2.76.43-.55.64-1.3.64-2.25s-.36-2.05-1.05-3.26l-.83-1.43,1.18-.69,13.09,22.67-1.19.69-.83-1.44c-.73-1.26-1.53-2.15-2.42-2.65-.63-.38-1.37-.54-2.29-.42-.65.07-2.06.72-4.23,1.98l-28.53,16.46c-2.22,1.28-3.54,2.2-3.95,2.76-.41.57-.62,1.33-.63,2.27,0,.97.34,2.05,1.04,3.27l.84,1.44ZM221.58,707.61l-5.86,39.25,15.74-14.68c2.2-2.04,3.39-3.75,3.58-5.1.23-1.83-.61-3.76-2.55-5.76l1-.94,11.28,12.09-1,.94c-1.64-1.37-2.86-2.16-3.68-2.41-.81-.24-1.71-.17-2.69.2-.99.36-2.36,1.36-4.08,2.96l-30.5,28.44-.85-.92,7.39-53.19-23.28,21.71c-2.11,1.96-3.08,3.76-2.91,5.41.15,1.66.81,3.11,1.96,4.34l.81.88-1,.93-12.11-12.98,1-.94c1.9,2,3.62,3.02,5.16,3.05,1.55.04,3.3-.85,5.24-2.67l25.85-24.1.24-1.7c.25-1.68.25-2.95,0-3.85-.23-.87-.88-1.89-1.88-3.03l1.01-.93,12.11,12.99ZM252.37,801.1l.7-1.17,1.42.85c1.25.75,2.33,1.13,3.22,1.13.91,0,1.71-.22,2.43-.72.47-.32,1.37-1.6,2.7-3.81l16.97-28.22c1.32-2.2,2.02-3.64,2.11-4.33.11-.69-.07-1.45-.54-2.28-.46-.84-1.3-1.62-2.5-2.34l-1.42-.85.71-1.18,19.21,11.55c5.14,3.09,8.83,6.26,11.12,9.54,2.79,4,4.14,8.33,4.04,12.96-.1,4.67-1.47,9.17-4.09,13.52-1.81,3.03-3.97,5.51-6.47,7.47-2.51,1.96-5.02,3.3-7.54,4.03-2.55.74-5.12,1-7.75.79-2.61-.22-5.54-.93-8.77-2.12-1.44-.53-3.55-1.62-6.31-3.28l-19.21-11.54ZM293.06,770.45l-20.12,33.49c-1.07,1.77-1.62,2.9-1.71,3.41-.07.5.03.98.31,1.42.37.67,1.1,1.32,2.18,1.97,3.52,2.11,6.93,2.53,10.24,1.23,4.48-1.74,8.77-6,12.88-12.85,3.31-5.51,5.09-10.43,5.34-14.76.17-3.4-.54-6.21-2.13-8.43-1.13-1.57-3.46-3.39-6.99-5.49h0ZM390.4,808.24c7.75,1.9,13.33,5.94,16.77,12.05,3.42,6.14,4.11,12.77,2.06,19.93-1.75,6.1-5.07,10.96-9.98,14.57-6.5,4.81-14.07,5.96-22.71,3.48-8.65-2.47-14.51-7.34-17.56-14.57-2.41-5.72-2.71-11.75-.88-18.12,2.05-7.15,6.2-12.41,12.41-15.77,6.24-3.38,12.85-3.91,19.88-1.58h0ZM390.18,810.62c-4.42-1.27-8.41.03-11.99,3.87-2.93,3.14-5.38,8.19-7.36,15.09-2.36,8.22-2.66,14.71-.9,19.45,1.22,3.33,3.66,5.51,7.28,6.54,2.43.7,4.64.69,6.61-.01,2.52-.92,4.82-2.88,6.95-5.88,2.11-2.98,3.94-7.16,5.47-12.5,1.83-6.37,2.6-11.31,2.32-14.79-.29-3.51-1.15-6.16-2.61-8.01-1.47-1.82-3.38-3.08-5.77-3.76h0ZM475.49,819.45l25.77,30.17-.75-21.51c-.11-3-.6-5.02-1.5-6.05-1.23-1.38-3.23-2.01-6.02-1.86l-.05-1.37,16.53-.58.05,1.38c-2.1.34-3.51.73-4.22,1.19-.72.45-1.26,1.18-1.62,2.17-.38.97-.52,2.66-.44,5.02l1.45,41.66-1.25.05-35.29-40.49,1.11,31.81c.11,2.88.83,4.8,2.18,5.76,1.35.98,2.88,1.43,4.56,1.36l1.18-.04.05,1.36-17.75.61-.05-1.36c2.76-.12,4.66-.75,5.69-1.9,1.05-1.14,1.53-3.04,1.43-5.7l-1.23-35.32-1.12-1.3c-1.1-1.29-2.06-2.12-2.9-2.52-.82-.39-2.01-.58-3.52-.57l-.05-1.37,17.75-.62ZM572.61,808.54l5.62,19.59.95-.27c3.06-.87,4.99-2.46,5.82-4.78.82-2.3.88-5.39.2-9.23l1.34-.38,7.23,25.2-1.35.39c-1.08-2.66-2.32-4.74-3.72-6.24-1.42-1.49-2.82-2.36-4.2-2.63-1.37-.24-3.22-.04-5.51.61l3.9,13.56c.75,2.66,1.32,4.24,1.73,4.76.39.53.95.9,1.68,1.09.72.22,1.76.12,3.14-.28l2.87-.82c4.5-1.29,7.8-3.37,9.91-6.24,2.12-2.84,3.15-6.58,3.12-11.18l1.31-.37,2.23,15.92-41.61,11.93-.38-1.3,1.6-.47c1.4-.4,2.45-.98,3.16-1.71.52-.5.83-1.21.92-2.12.12-.63-.18-2.16-.89-4.58l-9.07-31.66c-.63-2.18-1.08-3.5-1.34-3.96-.46-.75-1.09-1.27-1.85-1.55-1.1-.41-2.42-.37-3.98.08l-1.6.45-.37-1.32,40.28-11.55,4.09,14.24-1.35.39c-1.69-3.28-3.37-5.5-5.05-6.66-1.67-1.16-3.75-1.78-6.23-1.82-1.45-.06-3.99.45-7.63,1.5l-4.96,1.42ZM664.87,760.98l9.44,13.76-1.27.83c-2.87-3.12-6.18-4.99-9.92-5.61-3.73-.61-6.96-.04-9.68,1.74-2.11,1.36-3.42,3-3.9,4.94-.51,1.92-.28,3.61.67,5.09.6.92,1.36,1.61,2.27,2.05,1.22.59,2.81.93,4.74,1,1.42.06,4.44-.19,9.08-.74,6.48-.77,11.28-.64,14.38.4,3.09,1.04,5.53,2.93,7.34,5.71,2.27,3.51,2.86,7.43,1.78,11.72-1.1,4.31-3.76,7.83-7.96,10.56-1.32.86-2.67,1.54-4.02,2.03-1.35.49-3.15.94-5.41,1.36-1.27.23-2.21.56-2.85.97-.54.36-.98.93-1.3,1.72-.34.8-.41,1.76-.23,2.85l-1.14.74-10.31-15.86,1.15-.74c3.8,3.86,7.75,6.13,11.87,6.79s7.68.03,10.66-1.92c2.32-1.51,3.75-3.34,4.3-5.49.56-2.15.29-4.06-.79-5.73-.65-.99-1.53-1.78-2.66-2.37-1.12-.58-2.5-.94-4.12-1.08-1.61-.14-4.22,0-7.82.42-5.04.6-8.83.79-11.36.56-2.54-.24-4.77-.89-6.73-1.93-1.95-1.05-3.57-2.55-4.85-4.52-2.18-3.34-2.79-7-1.87-10.94.93-3.94,3.28-7.13,7.01-9.55,1.36-.89,2.79-1.6,4.28-2.09,1.13-.38,2.61-.69,4.44-.92,1.83-.24,3.03-.54,3.57-.89.54-.35.85-.79.95-1.32.11-.53-.13-1.51-.68-2.94l.93-.6ZM759.39,746.33l.94.98-18.83,18.18-.95-.98,1.2-1.15c1.04-1.01,1.7-2.01,1.99-2.99.22-.69.16-1.46-.18-2.3-.2-.61-1.18-1.83-2.94-3.64l-22.88-23.69c-1.77-1.84-2.98-2.9-3.63-3.17-.63-.28-1.41-.3-2.34-.07-.92.23-1.9.84-2.9,1.8l-1.2,1.16-.95-.99,18.83-18.18.95.98-1.2,1.16c-1.03,1.01-1.7,2-1.99,2.99-.22.71-.18,1.47.16,2.32.22.61,1.19,1.83,2.94,3.63l22.88,23.69c1.78,1.85,2.99,2.91,3.63,3.17.65.25,1.44.27,2.37.05.93-.22,1.9-.82,2.9-1.8l1.2-1.16ZM800.74,671.06l-9.37,14.99,3.03,4.37c1.01,1.46,1.96,2.45,2.85,3.01,1.2.75,2.38.81,3.54.2.69-.34,1.8-1.57,3.36-3.68l1.15.72-8.82,14.12-1.16-.73c.71-1.66.87-3.31.44-4.93-.41-1.63-1.79-4.19-4.13-7.64l-24.4-36.36.38-.6,44.39,6.45c4.22.6,7.04.7,8.48.3,1.1-.31,2.1-1.08,3.02-2.31l1.15.72-12.84,20.55-1.15-.73.52-.84c1.03-1.65,1.52-2.95,1.48-3.91-.04-.67-.37-1.2-1.01-1.59-.37-.24-.79-.41-1.27-.52-.22-.09-1.19-.27-2.94-.54l-6.71-1.05ZM797.76,670.68l-18.57-2.82,10.55,15.66,8.02-12.84ZM797.76,670.68"/>
    </g>
  </g>
  <path class="cls-2" d="M475.33,50.5c-234.67,0-425,190.32-425,425s190.32,425,425,425,425-190.32,425-425S710.01,50.5,475.33,50.5ZM475.33,891.89c-229.96,0-416.38-186.43-416.38-416.39S245.37,59.11,475.33,59.11s416.39,186.42,416.39,416.38-186.43,416.39-416.39,416.39Z"/>
  <g>
    <polygon class="cls-3" points="401.9 551.08 401.9 520.06 395.47 520.06 395.47 531.62 382.69 531.62 382.69 520.06 376.26 520.06 376.26 551.08 382.69 551.08 382.69 537.33 395.47 537.33 395.47 551.08 401.9 551.08"/>
    <path class="cls-3" d="M444.02,551.08h6.7l-11.18-31.01h-7.37l-11.03,31.01h6.72l2.04-6.38h12.02l2.11,6.38ZM431.57,539.48l4.3-13.21,4.32,13.21h-8.62Z"/>
    <polygon class="cls-3" points="469.94 520.06 469.94 551.08 491.46 551.08 491.46 545.35 476.32 545.35 476.32 520.06 469.94 520.06"/>
    <path class="cls-3" d="M526.17,520.06h-7.36l-11.03,31.01h6.72l2.04-6.38h12.02l2.11,6.38h6.69l-11.18-31.01ZM518.23,539.48l4.29-13.21,4.31,13.21h-8.6Z"/>
    <polygon class="cls-3" points="556.58 520.06 556.58 551.08 578.1 551.08 578.1 545.35 562.97 545.35 562.97 520.06 556.58 520.06"/>
    <path class="cls-3" d="M705.18,559.15c0-2.5.95-5.35,2.37-7.37,0-2.02.48-3.68,1.66-5.23.95-4.87,1.55-9.98,3.69-14.38-.24-.36-.36-.71-.48-1.07,1.67-5.94,2.85-11.88,3.09-18.07,2.02-5.46.6-12.23,2.02-18.06-2.14-8.79,1.9-18.06-.12-26.49-4.52,1.31-9.51.6-14.26.6v-1.08c-6.29,0-36-2.13-36.83-3.92-.95,0-2.5.95-3.09.13-5.11-.36-5.23,1.9-7.49-3.45-1.08-1.42-4.52-4.75-4.52-6.65-1.79-.59-3.09-2.14-4.28-3.8h-.71c-.24.95-4.28,4.63-5.35,4.63,0,.59.12,1.19.24,1.79-2.26,1.66-5.58,3.56-6.66,6.41-6.89,2.5-3.33,7.97-1.66,12.84.95.11,1.79-.24,2.37.23,1.67-1.66,16.64.84,19.49.6.24.12.48.24.84.48,1.55-.71,2.26,0,3.68.47,10.1.24,20.44,1.79,29.94,1.79.12.24.24.47.36.83,2.26.36,4.52.84,6.89,1.31.24.6.6,1.19.95,1.9,5.34,1.3,3.21,8.79,2.14,12.36-3.09,2.26-4.87,4.52-8.92,4.99-.23.24-.47.48-.6.84-2.97,0-12.23,1.18-14.61-.35-2.74.35-5.11-.36-7.84-.84.23-3.68-.6-6.89-1.19-10.57-1.42,0-2.26.36-3.45,0-.12.36-.23.71-.23,1.18-5.94,1.79-11.29,7.13-17.47,7.84.12,2.98,1.08,5.95,1.08,8.67,1.54.36,3.56.95,4.86.36.48.12.95.24,1.43.48.12-.24.36-.36.6-.48,5.1.36,11.41.36,16.27,1.66,6.53.36,11.53,1.31,17.23,4.52v.84c2.14,1.66,2.5,2.97,2.74,5.58,4.99,3.33,1.89,20.91-1.9,24.71-.12.6-.12,1.19-.12,1.79-.72.24-1.43.48-2.03.84-.12.47-.12.94-.12,1.42-.48.12-.83.24-1.19.36-.12.36-.24.71-.36,1.07-.6.12-1.07.24-1.55.36-.47,1.43-4.99,3.69-4.99,1.66-2.73,1.9-8.31,1.43-11.52,1.19-.12-.36-.12-.6-.12-.83-5.24,1.66-7.97-2.74-12.48-4.04-3.21-3.21-3.57-4.52-4.39-5.23q-.36-3.21-.84-3.57c.84-8.67-.95-7.6-6.29-13.18-4.04,0-7.6-3.57-12.12-3.57-.72,1.18-1.55,2.37-2.85,2.97-1.66,6.06-9.26,12.23-15.44,12.83-.84.36-1.67.71-2.38,1.19-.12,2.26-.83,3.33-.36,5.58,4.04-.95,17.35,1.9,20.08,2.14,1.9,1.42,5.1,2.61,7.36,3.44,2.98,2.61,8.92,3.69,10.93,7.01,1.9,0,4.16,1.66,4.75,3.33.72-.36,6.9,4.04,8.08,4.63,2.14,3.57,10.1,6.06,10.81,10.1.24,0,.6,0,.95.12,1.08,4.4-1.54,15.1-7.12,15.1-.36.36-.72.71-1.08,1.18h-2.13c-.12.12-.24.36-.36.6-3.45-.24-6.77-.36-10.1-.47-1.32-1.19-2.5-2.26-3.69-3.33-2.61.59-4.16-2.98-6.65-2.98-.24-.47-.47-.95-.6-1.31-2.85-1.31-9.98-5.1-11.17-8.31-2.73-1.07-4.63-3.45-6.42-5.82.36-.36.84-8.55.84-8.67,2.26-2.62-.95-2.74-.95-4.64-1.66.35-3.09-.71-4.28-1.78-5-.71-7.61,0-10.46,4.04-3.33-.36-6.54-.12-9.87-.6-1.31,1.43-2.85,1.55-2.85,3.92,1.07.36,2.73.95,3.8.12,4.63,2.13,11.53,6.29,13.79,10.93.47,0,.95,0,1.54.13.36.59.71,1.18,1.08,1.89.59.12,1.3.24,2.02.36,0,.48,0,.95.12,1.55.84.24,1.66.59,2.61.95,2.85,4.63,9.63,6.89,11.41,12.24,3.8.71,5.58,4.99,8.68,7.01,2.49,3.1,4.99,6.18,7.6,9.27h1.07c1.19,2.84,1.9,3.32.84,6.05,0,1.9-1.19,2.5-1.9,4.28-.95-.47-3.45,2.5-4.16,3.09-1.42,0-4.04.83-6.77.83-2.25-1.42-4.51-3.21-7.12-3.68q-3.33-2.61-9.5-6.18c-1.19-1.55-5.59-4.04-7.49-4.52-1.79-2.26-2.85-2.73-4.16-4.16-4.63-1.66-5.35-6.77-5.35-10.69,2.03-3.33,2.98-3.68,3.69-4.99-2.97-4.16-3.69-6.19-9.15-5-6.77-.47-14.14,1.07-20.68,1.78-.24,2.38-.59,2.62-.36,4.76,1.66.6,2.97,1.07,4.16,2.26,1.66,0,3.92,2.5,5.11,3.57,5.82,3.33,13.66,9.26,16.99,15.33.23.11.59.24.95.36,0,.47.12,1.06.23,1.66,3.21,1.55,9.74,9.74,10.34,13.43.36.12.84.24,1.31.36.12.83.24,1.78.48,2.74.35,0,.71,0,1.07.12.6,2.02,2.73,7.84,4.39,8.32.12,1.54.24,3.2.36,4.87-.36.12-.71.23-1.07.47.24.36.47.71.71,1.19q-.95,2.02-1.78,2.61c.12.23.24.47.47.83-3.33,6.29-5.7,11.41-13.66,12.12-1.66,1.19-9.86,1.43-10.69-.36-1.79-.12-6.06-.35-6.66-2.26-6.18-2.26-12.83-5.82-17.82-9.98-6.53-2.14-11.18-7.37-18.07-8.68-.24.36-.47.84-.6,1.31-2.02,1.55-1.89,3.33-3.8,4.99-1.9,7.25-4.99,14.38-6.77,21.86-.71.72-1.19,2.38-3.09,4.87-.72,4.29,6.17,17.47,9.02,20.32,3.92.12,9.15.83,12.36,3.21,4.04.59,8.2,2.26,11.17,5.23.36-.12.72-.12,1.19-.12v2.14c.24-.36.6-.6.95-.84.71,1.31,1.18,3.09,2.61,3.8-.48,9.15-2.5,13.07-8.44,19.96-2.02,5.11-7.49.6-11.17,3.09-6.89-1.78-13.9-4.99-17.83-11.4h-.71c-1.55-1.79-2.97-3.45-4.4-5.11h-.95c-4.99,5.47,3.33,11.16,3.33,16.63,1.55.71,2.13,1.19,2.37,3.09q.95.36,3.21,3.09c3.09,1.31,4.52,2.73,8.44,3.68,4.51,3.09,10.46,1.55,14.73,4.16.24-.24.47-.48.84-.6,4.86,1.55,16.27-5.11,17.94-9.39,8.55-6.05,8.31-22.09,3.56-30.41.12-.47.24-.83.48-1.19q-.48-.59-2.02-1.18c-1.79-2.61-6.77-10.7-9.87-10.7-.23-.48-.36-.95-.47-1.42h-.95c-.47-.72-.84-1.43-1.19-2.03-1.89,0-5.1-1.18-5.82-2.73-.47-.12-.83-.24-1.18-.24-.12-.47-.24-.95-.36-1.31-.48,0-.95,0-1.43.12-.23-.48-.47-.95-.59-1.31-1.55-.24-2.85-1.43-4.28-1.43-2.73-3.68.6-13.9,1.9-17.7.71.12,1.43.24,2.26.48,1.43,2.37,4.52,2.25,6.53,4.27,4.63,1.55,8.79,5.35,13.55,6.3,0,.36,0,.71.12,1.18,1.43.24,3.09-.11,3.57,1.55.6-.12,1.19-.23,1.9-.23,7.13,1.54,13.42,2.49,20.79,2.73,3.33-4.99,11.17-6.65,14.38-12,4.75-1.78,7.49-7.72,12.59-9.74.48-2.26,4.16-4.16,5.94-5.94,1.31-5.58,11.17-7.84,12.95-13.18.6-.48,1.19-.95,1.79-1.31-.36-1.31,13.19-15.21,14.73-18.3,2.02-2.38,4.39-4.04,5.47-7.01,2.02-1.42,1.9-2.26,2.97-4.28,2.02-.48,6.89-9.62,7.6-11.88,2.97-1.32,1.9-5.35,4.4-7.01,1.78-4.52,4.63-8.08,5.94-12.83,2.97-3.92,2.97-11.29,6.65-14.97Z"/>
    <path class="cls-3" d="M393.17,726.44c-5.46-5.47-8.31-3.92-14.01-.6-.12,1.07-.24,1.78-1.08,2.61,0,4.63,1.9,6.65,4.64,9.98,2.25-.12,4.51-.23,6.77-.23,1.55-1.31,5.95-6.77,4.04-8.68-.12-1.07-.24-2.14-.36-3.09Z"/>
    <path class="cls-3" d="M510.33,718.95c0,.36,0,.71.12,1.18-2.61,2.26-.36,7.49,2.61,8.44v.84c.48.12.95.23,1.55.36,6.29-.6,6.89-3.8,6.89-9.98-3.33-4.16-6.89-3.68-11.17-.83Z"/>
    <rect class="cls-3" x="446.05" y="724.18" width=".47" height=".47"/>
    <path class="cls-3" d="M356.22,710.28c-.23-.36-.47-.71-.59-.95-1.55-.36-2.98-.6-4.4-.83-3.33-2.03-16.4-5.58-20.32-4.63-1.08-.72-2.14-1.32-3.09-1.9-4.16-.6-11.64-10.46-14.49-4.76-.47,0-.95.12-1.31.24,0,6.18,12.23,11.05,17.11,12.23,1.9,2.86,12.84.72,16.52,4.4h2.14c.23.36.47.71.71,1.18,2.97.72,8.79,2.14,10.45,4.63q2.13-.36,2.97-.12c2.62-1.31,4.04-4.52,2.73-7.24-2.85-1.07-5.23-2.26-8.44-2.26Z"/>
    <rect class="cls-3" x="446.05" y="719.07" width=".47" height=".36"/>
    <path class="cls-3" d="M493.34,683.3h-.95c-.48-.59-.84-1.18-1.19-1.78-.36,0-.71.12-1.07.24-.12-.48-.24-.95-.36-1.31-2.97-.95-2.5-2.14-3.92-4.4-.84-.12-1.66-.24-2.5-.24-.95-2.97-6.77-4.63-8.2-7.6-.36-.24-.71-.36-.95-.47-2.14,2.85-4.75,5.1-7.73,6.77-.11.48-.23.95-.23,1.54-5.11,3.68-8.79,8.79-13.79,12.6-2.13.12-7.96-1.19-8.78-.36-2.14-.36-5.82.12-7.48-.84-7.37,1.19-15.81-2.37-22.82-.71q-.47-.36-9.15-.84c-.36.24-.59.6-.83.95,2.38,2.61,4.87,5.94,7.6,7.97,1.07,2.26,3.33,3.09,4.52,5.46-.95-.23-1.9-.36-2.85-.47-.11.12-.23.24-.35.47-5.7-.71-14.26,1.19-19.13-2.02-4.15-.59-8.31-1.9-12.35-3.09.12-1.31.23-2.61.47-3.92,1.19-.71,4.76-11.41,4.76-13.31,3.21-5.11,2.85-12.95,6.41-17.7-1.31-4.16,7.49-20.2,9.39-26.73,2.5-1.66,2.61-7.72,5.58-10.22,4.16,1.3,7.96,3.33,12.12,3.91-.59-2.61-2.73-4.63-2.49-7.84-2.14-3.56-1.66-10.09-4.4-12.83,0-2.26-1.54-5.23-2.02-7.6-.36,0-.59,0-.83.12-1.55,2.26-2.14,4.4-4.29,6.54-.11.95,0,1.9-.95,2.37.48.95-2.49,3.21-2.49,5.11-3.81,3.81-5.82,10.22-9.26,14.73-.72,1.79-1.55,5.11-3.21,5.94-.36,1.67-1.19,2.38-1.66,4.05-2.98,2.97-3.81,7.84-6.66,10.92-.83,4.52-6.41,9.16-7.13,14.03-4.75,3.56-6.41,11.99-10.33,16.75.47.95-2.26,2.73-1.9,4.52-1.66,3.44-8.44.71-11.29,0-1.31-2.03-5.1-.36-6.29-2.74-6.42-3.44-11.89-6.77-16.99-12.71-.48-.12-.83-.23-1.19-.36v-.6h1.55c0-.6,0-1.18.12-1.66q.84-.6,2.26-.71c1.19-5.11,8.91-6.07,10.1-11.17,1.07-.95,2.14-2.38,3.68-2.38.48-2.73,3.93-4.27,6.06-6.18,3.21-6.53,6.78-1.54,10.81.12,2.97-2.97-1.55-22.57-1.78-28.75-1.08,1.18-2.85,3.56-4.52,3.56-2.85,4.15-6.18,7.25-10.34,10.1,0,1.31-.95,2.14-1.78,3.09-3.92,1.9-5.82,7.73-10.1,9.15-2.38,4.76-8.32,7.73-11.29,12.24-3.57,1.42-4.04,5.34-7.49,6.53,0,.12,0,.24.13.47-.71.12-1.32-.6-2.5-1.07-.24-.71-.48-1.31-.71-1.9h-1.08c-2.37-3.33-6.3-6.07-9.26-9.03,2.61-1.31,6.53-7.01,9.39-7.01.11-.47.24-.95.36-1.42,5.94-3.57,9.86-10.34,16.28-12.84.59-3.09,4.04-5.1,7.01-5.81,1.78,2.13,6.66,4.51,9.15,5.94.13-.13.36-.24.6-.36-.36-1.55.12-2.86-.36-4.4.24-2.73,2.26-24,.84-25.43-2.26,1.9-4.04,3.92-6.89,4.76-.48,1.66-2.14,2.61-3.57,3.68-.24-.24-.48-.36-.59-.48-2.38,2.74-6.06,5.35-9.27,7.13-3.56,4.76-14.25,8.56-15.91,13.55-1.9.95-3.8,1.9-5.71,2.97-.47,1.55-3.09,2.97-4.28,4.63-2.26.48-3.8,2.5-5.47,4.04-1.78-1.07-2.62-3.09-4.52-4.15,0-.36.12-.71.24-.95-2.61-.95-3.68-2.97-5.94-3.68-.59-1.43-.83-1.79-1.9-2.85,2.26-2.97,7.6-3.8,10.7-6.42.95.24,3.21-1.9,5.11-1.9.12-.47.23-.95.47-1.31h1.42c.24-.47.48-.83.84-1.18,5.58-1.66,11.28-5.58,16.39-8.56,2.85.48,4.76,4.16,8.08,4.16,1.18-3.92,1.55-8.08,3.33-11.76.59-3.92,2.5-11.88,5.58-14.26,0-3.44,2.26-5.94,3.21-9.26q.48-.24,2.5.6c-.12.36-.12.71-.12,1.19h1.08c2.13,3.56,8.67,5.81,11.99,8.67,2.38.24,3.93,1.08,5.71,2.5.36-.24.71-.36,1.18-.48q.59.6.84,1.79c.6-.12,1.19-.24,1.9-.24,0,.24.12.47.24.82,3.92-.82,7.25-1.65,9.75-5.1,7.01-2.5,4.15-17.47.94-21.39-10.22.48-15.33,3.92-19.49,13.67-2.25.71-4.99-2.02-6.41-3.33-5.94-2.37-10.46-6.77-9.74-13.31,3.21-2.37,5.23-8.07,8.68-10.93-.36-5.23-.6-10.1-.48-15.45h-5.34c-1.42,1.9.12,3.57.36,5.95-.48,3.91-1.42,14.73-7.02,15.8-1.42-1.78-2.37-3.57-4.15-5.35.24-.6.47-1.19.83-1.67-.23-.47-.36-.94-.47-1.3.12-3.45-.71-16.87,2.02-18.66,1.07-2.49,1.31-3.09,3.68-4.28.12-2.26.36-4.39.59-6.53-1.42.12-3.45,1.08-4.39.12-2.26,2.73-6.89,3.56-10.22,5.58-.23-.12-.47-.24-.71-.36-.24.36-.36.83-.47,1.31-.48-.12-.95-.12-1.43-.12-.11.24-.23.6-.36.95l-69.06,26.12-.13,1.29-22.61,7.09c.85,5.62,2.37,9.85,6.61,14.09,3.32-2.37,7.84-3.8,11.65-5.23l66.89-32.8q2.61-.94,4.16-.83.71,2.73,3.92,9.26c.23,0,.47.12.83.24v1.55c2.02.6,4.63,8.68,6.77,10.81.12.48.24,1.07.36,1.66,3.56,2.61,4.75,10.57,8.32,11.76.11,1.07.23,2.26.36,3.45-1.19.71-2.38,1.42-3.45,2.26-.12.47-.24,1.07-.24,1.66-2.97,0-3.8,4.63-6.53,5.1-.82,2.74-4.63,5.24-7.24,6.07-.47,1.42-7.25,6.89-8.67,7.13-.13.36-.13.71-.13,1.07-3.45.48-4.76,2.61-7.72,3.57-.12.36-.23.71-.23,1.19-.72,0-1.31,0-1.9.12-.36,1.19-11.29,6.29-12.95,6.29-1.55,1.19-2.62,1.9-4.52,2.14-8.44,3.92-23.64,9.74-33.27,8.67q-.23.36-6.77.59c-.48-.47-13.55-3.56-14.62-3.21-.12-.36-.24-.71-.24-.94-.59.12-1.07.23-1.55.36-1.9-1.9-4.87-2.85-7.25-3.33-.6-1.78-8.2-4.87-9.98-5.82-4.4,0-5.82-7.25-9.75-8.68,0-2.02-4.64-9.74-6.06-9.26-.12-.71-.12-1.31-.12-1.9-.36-.12-.72-.24-.95-.36-.24-.48-.36-.84-.48-1.19h-.71c-.47-.95-2.61-4.99-2.26-6.18-.47-.24-.95-.47-1.31-.6,0-1.78-2.61-8.31-3.92-9.62q-.83-4.76-1.66-7.25c-.24-7.13-2.02-17.47,1.31-24.24-.36-5.46,3.09-11.99,4.87-16.99,1.19-.59,2.61-4.63,2.97-5.94,2.5-3.68,6.42-7.6,8.32-11.52,3.68-1.79,7.13-5.35,9.51-8.56q1.66-1.3,3.68-2.02c0-.36,0-.71.11-1.07h.84c0,12.12,2.85,23.88,4.04,36.12,1.19,1.18,1.66,3.68,1.9,5.34,2.17,1.48,4.01,1.88,6.46,1.9l.34-.05c.24-.45.58-.79.93-1.14.9.12,1.66.35,2.33.67l7.33-1.07c3.88-1,11.02-1.86,13.16-4,6.18,1.07,13.31-4.76,19.36-3.57.24-.48.59-.84.95-1.19,3.33.48,9.15-2.13,12.47-2.73,2.97-2.26,7.49-1.3,10.58-3.33,1.42.71,2.61-.48,4.16-1.07.23.12.47.24.83.48,2.73-1.31,4.76-1.79,7.84-2.02,1.19-1.19,3.32-1.43,4.87-1.66.36.36.71.83,1.19,1.3-.24.36-.36.72-.48,1.19,1.31,1.79,1.66,5.11,2.02,7.25,2.74,1.3,15.81-13.3,15.81-15.44,1.19-.6,2.26-2.02,1.9-3.33-4.76-.47-11.18-.47-15.57-1.66-3.09,3.09-11.65,0-15.57,2.61l-2.85.36c-1.19-2.14-3.45-3.33-3.93-5.82.72-1.06,1.55-2.14,2.38-3.09.83-2.5,1.55-10.7,0-12.24-2.85,0-7.24.71-9.74-.47-.95.47-1.79.36-2.62-.24v-5.82q4.04-4.99,4.04-5.7c-4.51-2.62-4.04-13.31-4.04-17.95-5.23,3.93-3.09,12-3.56,18.06-4.52,5.82-5.47,17.11-2.97,24-.24.95-.36,2.03-.48,3.09q1.43.47,2.85,1.66c2.37.36,6.77.6,6.77,4.04q-.84.36-2.26,1.9c-6.53,0-16.39,2.74-22.46,5.59-1.07-.12-2.73-.84-3.32.36-2.5.36-4.87.71-7.25,1.18-3.92,2.61-11.05,2.5-15.68,3.09-5.94-2.14-2.38-8.68-5-12.6q.12-2.02-1.31-20.44c.72-.95.72-3.09-.23-4.04.36-.47.36-4.99.83-5.58-1.78-2.26-.71-17.59,0-18.3-.23-4.04.24-18.3,1.9-20.55.11-1.9-.12-4.04.59-5.58h1.19c.12.35.23.71.47,1.06,4.75.47,10.22,6.07,14.14,6.07.24.36.48.83.72,1.3.23-.23.47-.35.71-.47,6.53,1.55,13.54,8.91,20.43,9.98.36.36.72.71,1.08,1.18,1.89-1.9.36-7.01,1.54-9.51-.23-10.1,1.07-20.08,1.07-30.06.6-1.19.12-2.37,0-3.68,1.08-2.5,2.03-14.73.84-17.11-.84.83-2.61.12-3.8.12-3.45,1.9-6.9,3.8-10.22,5.82-6.65.6-15.21,8.79-21.75,7.37.12-1.9-.11-2.73.95-4.28-.59-1.31-.23-2.61-.11-3.92.24-.12.47-.24.82-.36q.48-1.66.37-3.09c2.26-3.92,2.02-10.45,5.23-13.66-.24-.37-.36-.72-.48-1.08q1.66-3.09,3.21-7.13c3.32.83,6.66,1.08,9.15,3.56.36-.11.84-.24,1.31-.36,6.65,1.9,13.9,5.23,21.03,6.42.95.95,7.6,3.21,9.15,3.21,4.63,2.61,14.49,2.26,18.06,5.81,1.78,0,1.78.13,3.09.95,5.1.83,10.21,1.9,15.09,3.69q1.07,12.47,1.54,12.94c6.9-3.92,15.45-3.2,22.46-6.41,2.74-.48,3.56-1.19,4.4-1.19.24-1.9-2.26-2.37-3.57-2.73v-1.08c-1.66-.24-6.06-2.13-6.42-3.32-1.78.36-3.68-.47-4.63-2.02-.6-.12-1.07-.24-1.55-.24-.12-.36-.23-.71-.36-.95-1.78-.59-4.04-.82-5.11-2.49-.83-.13-1.65-.13-2.49-.13-.11-.47-.24-.95-.36-1.31-4.04,0-7.01-3.57-11.29-4.04-2.02-1.07-8.31-4.99-10.34-4.99-.23-.36-.47-.72-.71-.95-.24.12-.47.23-.6.47q-3.08-1.31-4.51-2.49c-2.74.23-13.19-4.87-14.5-6.18-5.47,0-10.1-5.59-15.44-5.59-.13-.36-.13-.71-.13-.94-2.49-.59-3.8-.59-5.1-2.85-.36.24-.71.47-.95.71-.24-.36-.48-.6-.6-.83-.95-.12-1.78-.23-2.61-.36-1.55-2.02-3.81-1.42-4.87-3.68-.47,0-.95,0-1.42.12-.6-8.31,6.53-13.78,8.2-21.27,2.61.84,13.07-3.33,16.15-3.44.12-.36.24-.6.36-.83,1.9.24,4.99-1.19,7.01-1.66.71-4.76.95-10.81.95-15.57,1.9-3.21-1.66-10.57,4.28-10.57,0-.48,0-.84.11-1.19,3.45-2.85,6.66-9.5,11.05-10.93,4.63-4.63,3.57-5.11,9.27-2.5,0,.48.12.95.23,1.55,1.55.47,2.03,2.02,3.69,2.5,1.54,4.86,9.38,8.31,11.4,13.07,2.62,1.31,4.28,4.51,6.89,6.3.95,4.99,7.01,7.49,8.2,12.23,2.26,3.21,5.7,7.73,6.89,11.41.48,0,.95,0,1.55.12.71,2.13,2.13,6.18,4.28,7.13-.12.36-.12.71-.12,1.07.24.11.6.23.95.47q.37,2.5.83,3.09c-1.9.71-6.77,2.73-8.91,2.73,0,3.81-2.5,7.6-2.74,11.65-1.66,6.42-1.89,9.98-.95,16.51h.84q.24-1.31,1.31-2.37c0-2.26,4.87-7.01,6.77-8.44-.12-.23-.12-.47-.12-.71,2.85-1.42,4.63-4.04,8.08-5.34,3.09.6,6.3,1.18,9.5,1.9.12.23.24.47.36.83,2.14.71,5.11,1.42,6.89,2.85.13-.36.36-.71.59-.95q1.55.12,3.45.83c-3.21-10.46-8.92-14.5-18.3-18.53-1.9-3.57-2.85-9.51-5.71-12-2.25-7.73-6.77-14.14-10.81-21.15-.47-.47-.95-.95-1.42-1.42-1.9-3.92-7.13-9.03-8.08-12.83-.36-.12-.6-.24-.84-.36-.36-1.9-1.07-2.37-2.49-3.57-1.66-3.8-6.54-7-7.37-11.17-4.63-4.63-10.33-12.23-12.59-18.18-.48-.12-.95-.23-1.32-.36-.35-.83-.71-1.66-1.06-2.49-.95-.24-4.39,2.73-6.06,2.97-.12.47-.24.95-.36,1.42-.24-.24-.48-.35-.6-.47q-.59.59-2.5.83c-1.9,2.5-3.81,4.52-6.65,5.94-.71,1.08-1.31,2.74-2.74,2.74-2.37,2.61-5.46,3.92-7.12,6.89-4.04,2.37-6.66,5.7-9.39,9.75-1.07.59-14.62,2.26-15.33,1.54-.59.48-6.53.48-10.22.95-.23,4.87-.36,9.74-.47,14.74,1.07,1.42.59,10.81-.36,12.71.24.23.59.47.95.71-.24.47-.36.95-.48,1.42.13.12.24.36.48.6-.36.71-.59,1.55-.84,2.37-.36,0-.59.12-.82.24-.24.83-.48,1.66-.71,2.5-.36,0-.72,0-1.08.12-.23,1.79-1.07,3.68-2.73,4.75.36.84-2.61,3.8-2.97,5.47-.84.24-1.31,1.66-2.02,2.02v1.19c-5.82,8.68-8.8,18.65-13.19,28.04-.24,1.55-.47,5.11-1.9,5.82,0,3.68-2.61,8.2-3.2,12.12-2.74,2.74-.84,9.39-3.93,12.47-.23,3.45-1.06,5.71-2.02,9.03-1.42,12.83-4.28,24.12-4.28,36.59-.36.13-.6.24-.83.36.59,2.14.36,6.18,0,8.44-.12,10.34-.12,21.03.95,31.49q-1.19.47-4.4,3.57c-.24-.12-.47-.12-.6-.12-1.78,2.26-7.6,7.49-9.98,7.49-1.07,2.14-5.1,4.99-7.36,5.94-.24.84-.47,1.66-.71,2.61-.36,0-.71,0-1.07.12.83,4.28-7.61,8.67-7.61,12-1.42,2.38-2.85,4.75-4.28,7.12-.24,3.21-.47,8.32-2.61,10.46.36,2.26-.95,4.76,0,6.66-.59,1.18-.23,1.78,0,2.97-1.31,2.85-.95,10.46.48,13.42-.36.24-.71.48-1.08.71,1.67,1.08,1.08,2.38.95,3.92,1.66,3.33,2.14,8.2,2.14,11.89.11,0,.36,0,.59.12.12,1.07.23,2.14.47,3.33.24.12.59.24.95.36.12,1.43.36,2.85.6,4.28.36.24.71.48,1.18.84.24,2.38,2.14,4.76,1.67,6.89q.71.6,3.92,6.53c-.24.12-.36.36-.48.6,4.27,4.76,6.77,10.58,12.12,14.62,0,.24.12.47.24.83,3.56,4.16,9.39,7.01,13.9,9.87,5.23,1.42,10.93,4.16,15.68,6.77.12-.23.23-.36.47-.47,4.87.47,9.15,2.5,14.15,2.02,5.34,1.43,11.04-1.07,16.39-.6,4.99-2.61,8.67-2.37,10.34,3.8,2.13,1.31,7.72,6.42,7.72,8.55,1.78.36,3.33,1.42,3.33,3.33,1.31.6,2.26.95,2.61,2.26,1.79,0,7.72,5.71,7.72,7.61.48.12,1.07.23,1.66.47,1.9,2.61,6.29,4.04,7.49,7.13,4.28,1.66,7.49,7.36,12.36,8.68.36,1.66.83,1.78,2.73,2.02,1.66,2.61,4.63,4.51,7.61,5.1,3.09,3.45,8.91,4.52,11.52,7.97.24-.12.47-.12.71-.12.11.36.24.72.48,1.08,2.49-.6,3.92,1.07,5.46,2.61.36-.12.71-.12,1.19-.12,1.07,1.67,14.97,6.89,17.83,7.97,0,.24.12.47.23.83.6-.12,1.19-.23,1.9-.36,3.69,2.38,11.4,2.5,14.02,5.11,5.47,0,11.29,3.92,16.76,3.92,2.14.84,6.41.71,7.72,2.02,2.38,0,4.64.24,7.13,1.66.24-.24.59-.47.95-.6,1.66,1.08,21.51,3.92,22.22,3.21,1.66,1.31,5.94-.23,7.13,1.9.48-.12,1.07-.24,1.66-.35-1.18-2.86-2.5-4.76-4.87-7.01-1.31-3.93-6.42-5.95-6.42-10.46.72-.23,2.85.24,3.09.59,1.66-.95,14.97.24,16.99,1.55,4.28.24,8.55.48,12.83.71,5.59,2.97,9.98,8.55,15.57,11.65.83-1.55,2.37-3.45,4.39-3.45.59-2.73,4.76-4.52,4.76-6.65,1.66.47,3.8-3.92,6.06-4.63.12-.48.23-.95.36-1.31,3.8-1.55,4.51-5.71,8.31-6.66q.48-1.31,1.66-2.85c-.36-1.43-.83-1.67-.95-2.85-2.13-.24-4.75-1.9-5.46-4.04ZM368.46,570.55c.24,5.1,2.62,9.74-2.14,13.31-1.54.59-3.09,1.18-4.63,1.78-.83-1.55-2.37-2.13-3.32-3.45-1.31-7.48,1.19-13.18,10.1-11.64ZM245.13,414.43c.12-.23.24-.47.36-.71,3.44,0,5.94-3.45,9.39-2.97,0,4.04,0,8.08.11,12.12-1.66,2.5,1.78,2.5-2.13,3.09v-.71c-.84-.24-1.67-.36-2.38-.47v-.71c-1.42-.83-1.78-1.32-3.57-1.32-2.13-3.2-8.44-2.01-9.15-6.3,2.38,1.19,4.87-1.18,7.37-2.02ZM261.17,310.94c1.19.36,2.97,0,3.81-.83q8.67-1.54,11.99-1.78-.23,3.56-1.07,5.82c.12.12.24.36.47.59-1.42,2.27-.83,5.11-.83,7.61-2.97,2.97-10.34.83-14.85,2.26-.36-.24-.72-.48-.95-.71-.13-3.69-.6-10.22,1.42-12.95ZM236.58,416.44h-1.19c-.12-.24-.24-.47-.36-.59-.6-.12-1.19-.12-1.66-.12-.13-.83-.13-1.54-.13-2.26,1.08,1.08,2.85,1.55,3.33,2.97ZM231.47,413.71c.12,0,.36.12.59.24-.24.11-.48.36-.59.59v-.84ZM230.28,412.17h.72v.71h-.72v-.71ZM425.14,701.61h-.84v-.72h.84v.72ZM472.78,701.25c-.13.48-.13.95-.13,1.54h-.82c-2.62-3.44-7.25-6.42-10.7-8.91v-.84c2.61-2.26,5.11-7.13,8.2-7.72.13-.71.48-2.85,1.79-2.5,1.31,4.16,8.78,5.82,9.97,10.57-2.85,1.19-4.87,6.42-8.31,7.84Z"/>
    <rect class="cls-3" x="571.64" y="715.86" width=".36" height=".48"/>
    <path class="cls-3" d="M604.07,712.3c1.43-.11,2.85-.11,4.4-.11,5.81-4.63,3.44-5.59,1.18-11.76-7.6-2.97-10.46,7.01-5.58,11.88Z"/>
    <rect class="cls-3" x="424.3" y="700.89" width=".84" height=".72"/>
    <path class="cls-3" d="M622.13,686.28c-6.29,2.02-6.41,5.58-4.51,11.41.47,0,.95.12,1.42.23-.12.24-.24.6-.24.95.48-.36,1.08-.71,1.66-1.06.48.24,1.08.47,1.66.82.72-.71.95-.82,2.27-.82q1.66-2.02,3.2-4.76c-.71-3.57-1.78-5.58-5.47-6.77Z"/>
    <rect class="cls-3" x="447.23" y="680.22" width=".48" height=".47"/>
    <rect class="cls-3" x="566.05" y="665.6" width=".47" height=".36"/>
    <path class="cls-3" d="M422.64,632.45c-.36-.11-.59-.23-.83-.36-6.3,3.33-11.64,7.84-11.64,15.92-.36.36-.6.71-.84,1.07h.59c.95,1.55,1.31,4.04,2.14,5.82.36,0,.72,0,1.08.12,1.55,2.61,4.04,3.68,6.41,5.46,9.87-.71,12.6-2.85,18.31-9.86q.83-6.41,1.3-7.36c-1.18-2.14-2.25-9.03-5.58-9.03-3.91-2.61-6.05-3.33-10.93-1.79ZM431.19,650.28c-1.42,1.42-4.04,2.73-5.94,3.68-.24-.23-.48-.35-.6-.47-.47.12-.82.36-1.18.6-6.06-1.66-6.18-2.85-6.54-9.15,1.78-5.95,9.5-9.74,13.9-4.28.6.23,1.19.47,1.79.83,0,2.97-.48,5.82-1.43,8.79Z"/>
    <path class="cls-3" d="M496.31,632.09c-2.61.72-10.46,2.74-13.07,1.9-3.09,3.09-12.24-.47-14.97,3.57-1.79.24-10.45,1.42-11.88,0-1.79-.12-7.02,0-7.73-1.54-1.78,1.31-2.38,3.56-3.69,5.46.24.24.48.6.84.95.24-.24.47-.36.83-.47,1.55.95,3.69,1.18,5.82,2.26,1.55.36,4.52.23,5.47,1.18,4.16-.12,13.91.24,16.64-3.33,6.65-2.14,16.99-1.31,24.36-1.19,2.49-1.42,2.85-4.39,2.37-7.13-1.42-1.42-3.33-.59-4.99-1.66Z"/>
    <path class="cls-3" d="M557.38,604.42c.95-2.26,2.02-3.33,4.39-3.33q.12-1.18,1.67-4.75h1.42c0-.48.12-.95.24-1.31,4.28-3.21,2.97-9.87,8.91-12.36.84-3.69,6.89-8.08,9.63-10.7-.12-1.66-.24-3.21-.36-4.75-1.19-.84-2.38-1.67-3.45-2.5-1.19,1.18-2.02,2.37-3.92,2.37-1.31,1.79-3.57,4.16-3.57,6.53-.6,0-1.07,0-1.55.12-.12.59-.12,1.18-.12,1.78-1.66.95-1.66,1.07-2.38,2.85-2.85.95-2.96,6.3-5.94,7.25,0,3.45-5.46,9.63-7.36,12-4.87,2.02-8.32,4.63-8.32,10.1h.84v1.18c3.44-.47,6.53-4.51,9.86-4.51Z"/>
    <path class="cls-3" d="M779.8,496.89c-.24-.36-.36-.71-.48-1.07.36-3.57-.71-19.61-1.18-19.97-1.66-7.25-2.38-8.55-2.38-10.1-2.61-6.41-6.89-11.99-9.86-18.06-2.73-3.09-8.31-6.18-9.5-9.98-4.16-2.03-7.37-5.23-10.81-8.32-2.37,0-4.87-1.55-6.65-2.85-1.43,0-7.49-.47-7.97-1.18-3.57-.36-20.67-4.16-24.35-1.43-.24-.24-.48-.36-.6-.47-10.1.95-20.79,5.58-29.59,10.22-.12,1.9,0,2.97,1.66,3.45.36,2.13,1.07,4.28,3.57,4.87-.12.47-.12.94-.12,1.54,3.57,1.43,5.94,3.81,8.31,6.78,2.5.95,3.45,2.74,6.06,3.45.36,1.42,2.26,2.73,3.8,2.73.12.36.23.71.47,1.19,5.82,2.85,11.41,8.55,17.7,9.26-.12-.36-.24-.71-.36-.95,0-10.46-.36-21.15-.84-31.61q.95.12,2.14-.71c5.34.95,13.07-1.19,17.35,3.09.36-.13.71-.24,1.19-.36,4.04,2.5,8.91,3.8,11.52,7.84,3.45,1.67,7.73,7.01,9.15,10.46.12-.13.24-.13.48-.13.83,2.5,3.57,5.11,3.57,8.2.36,0,.71,0,1.07.12.12.95.36,1.89.6,2.85,2.49,3.09,2.49,7.72,4.52,11.29,1.18,5.94,6.65,25.31,4.28,27.68,1.31,3.57-.36,21.03-3.21,23.88,1.18,3.09-1.78,6.18-2.14,9.39-.36.12-.71.23-.95.36,0,8.32-10.81,19.01-14.38,26.14-.71.36-1.42.71-2.02,1.07-.48,1.9-3.21,3.93-4.52,6.06-1.9,1.78-4.75,3.09-5.94,5.47-.47-.12-.83-.24-1.19-.36-.71.71-1.31,1.42-1.89,2.25h-.84c.47,1.67-2.5,2.74-3.68,3.21-.12.24-.24.6-.24.95-.36,0-.71,0-1.07.12-.48,1.54-8.79,6.53-10.93,6.53-.12.36-.23.71-.36,1.18-1.78.48-3.09,1.55-4.99,1.79-3.21,3.21-12.6,3.92-16.87,4.63,0,2.61-.36,5.11,2.26,6.42,2.61-1.66,6.77-2.02,9.86-3.8,2.97,0,12.6-4.03,13.55-6.05,8.44-1.79,14.73-11.05,22.33-14.62,1.55-3.09,4.99-4.87,6.89-7.84h.84c.95-2.5,3.8-5.11,6.06-6.77,2.49-4.99,7.84-9.26,9.38-14.73.36-.12.71-.24,1.19-.24,0-.6,0-1.18.12-1.78,2.26-1.08,4.16-7.25,5.11-9.75,1.07-7.48,2.61-14.73,3.92-22.21.12-1.43-.24-10.93.95-12.13-.24-.12-.48-.23-.6-.36,0-2.26-.36-4.75.6-6.65ZM702.68,443.78c-.83.11-1.66.24-2.37.47-.95-3.91-6.65-4.04-7.49-6.77,3.33-.59,6.66-1.19,9.98-1.79.24,1.55-.36,2.85-.12,8.08Z"/>
    <rect class="cls-3" x="766.49" y="555.47" width=".36" height=".47"/>
    <path class="cls-3" d="M729.77,545.6c.95.12,2.03.36,3.09.6.12.24.24.6.36.95,6.18-.95,12-6.65,8.08-13.18-.12-.48-.12-.95-.12-1.43-.84-.24-1.67-.36-2.38-.47-.23-.48-.36-.95-.47-1.43-1.31.24-2.61-.23-3.57-1.18-8.08,3.57-8.92,9.02-5,16.15Z"/>
    <path class="cls-3" d="M734.88,518.27q1.79.12,2.74.84.71-.6,3.21-1.07c1.07-.95,2.13-1.9,3.2-2.85,2.14-7.6-.83-11.65-8.2-12.24-2.73,1.31-4.28,2.14-6.06,4.64.12.23.36.47.6.71-3.09,3.09,2.38,8.44,4.52,9.98Z"/>
    <rect class="cls-3" x="661.1" y="509.96" width=".47" height=".36"/>
    <path class="cls-3" d="M612.99,487.98v2.13c-3.09,7.6-.24,12,5.7,16.87.12-.24.36-.36.6-.47q.47.35,5.82.47c.12.12.24.36.36.6,7.84-2.14,11.28-5.58,14.14-13.42-.95-9.27-3.33-12.13-12.6-14.62-8.31.59-8.91,4.63-14.01,8.44ZM617.97,491.3c.24-.12.6-.24.95-.24v-1.07c.95-.36,1.18-1.19,3.92-3.45,7.13-1.18,9.26,3.09,8.31,10.1-1.55.95-3.44,2.97-4.87,4.4-.47-.13-.94-.24-1.42-.36-.47,1.07-2.5.83-3.68.95-.95-1.19-2.5-2.03-3.45-3.45,0-2.37.12-4.63.24-6.89Z"/>
    <path class="cls-3" d="M415.75,387.46c0,2.25,2.02,9.14.71,10.45,2.02,2.73.24,6.53,1.66,9.38-1.54,3.09,1.42,7.02.35,10.34.84.83.71,4.28.71,5.34,1.9,2.38-.47,6.3,1.08,7.84-.24,1.9-.12,9.27.95,9.74.71,13.66,5.46,41.47-13.55,45.27-3.21,2.14-28.16,6.29-29.59,2.97-6.65-1.42-12.36-5.94-17.22-10.46-.13-.6-.13-1.19-.13-1.78-.36-.24-.59-.48-.83-.72,0-1.18.12-1.89-.72-2.73-.23-3.68-.35-7.25-.47-10.81,3.68-11.52,7.37-22.93,11.17-34.34-.47-.48-.83-.95-1.18-1.43h-.84c-1.42,3.09-3.92,5.82-4.39,9.27-.36.23-.59.47-.84.71.36,1.66-2.97,8.08-3.92,9.03-1.79,9.74-4.75,18.65-5.11,28.75-1.18,4.63.36,10.33,0,15.09,1.32.59,2.38,2.13,2.38,3.56.94.6,1.31,1.19,1.54,2.5,1.43.71,3.81,2.37,3.81,4.15.36,0,.71,0,1.07.12,0,.36,0,.71.13,1.07.71.12,1.42.24,2.26.47.12.36.23.72.36,1.19.59.12,1.31.24,2.02.47,3.09,2.38,6.42,1.55,9.26,2.98.59-.24,1.19-.36,1.9-.48.11.24.24.6.47.95,5.59-.12,16.52.95,21.27-1.42,3.92,0,14.14-3.56,15.92-6.3,5.58-2.73,10.81-11.04,12.83-16.87q.36-2.5.71-29.47c-.36-.12-.6-.23-.83-.36-.13-4.87-.24-9.74-.24-14.62-.6-4.51-1.19-9.02-.83-13.54-1.07-.71-3.21-30.3-3.21-31.25-.36-.24-.36-3.09-1.18-7.25.36-3.56,1.78-5.11,4.87-6.89,3.09-3.09,1.9-11.41,1.07-15.57-.95-1.19-2.5-1.66-4.4-3.21-3.56-.83-6.05-5.47-10.22-5.47,0,2.38-2.02,11.17-1.07,12.13q-.13,1.07-.59,1.66c.11.23.24.47.47.71-1.54,3.21.24,16.63,2.38,18.78Z"/>
    <path class="cls-3" d="M509.38,462.07c-.84,3.45,2.97,9.51,1.31,12.84.71.71.95,4.99.95,6.29,7.49.95,16.51.83,24.12.83,3.33,1.43,14.14.48,17.22.36,1.9,2.85,16.16-1.08,19.61,1.65,1.42-1.42,7.12,0,8.91.36,5.82-.6,12.95-.48,18.65.23-.6-5.23.95-11.04,1.42-16.27-1.18-1.9-4.15-5.24-6.53-5.24-.12-.47-.23-.94-.36-1.3-.36-.12-.6-.24-.83-.36v-1.08c-1.9-.36-2.02-.71-3.21-2.26-3.68-3.21-5.34-4.28-7.84-8.2-2.85-1.42-4.16-4.52-7.01-6.18-1.55-3.09-8.45-10.7-11.89-12-4.39-5.94-18.41-5.1-24.59-5.23-1.79,4.4-4.4,10.94-7.73,14.26,1.19.24,2.97-.11,3.57,1.19.12-.24.24-.36.47-.48,1.67.12,3.33.24,4.99.36.12.12.24.36.36.59,5.82,0,25.9,10.34,27.32,14.85,3.33.95,8.68,5.35,4.76,8.8-1.55-1.07-12.71-1.07-16.15-.59q-.6-.48-7.01-.95c-2.61,1.07-13.9-.36-17.23-.84h-12.12c-.12-.59-.24-1.18-.24-1.78-2.97-9.03-3.56-18.65-5.58-27.8,0-3.57-3.92-23.89-2.26-25.55l-.83-.83q-.84-13.55-1.19-14.73c.12-.24.24-.48.48-.6-.84-1.07-1.08-6.89-.48-8.2-.95-3.09-.83-6.3-.83-9.51-.48-2.73-.95-5.46-1.31-8.07q-.95,1.78-2.26,2.73c0,.11-2.61,5.94-2.74,6.89.84,5.94,3.45,17.58,1.55,23.41,2.14,5.47-.6,13.78-.36,19.96-1.66,5.71-3.21,11.53-4.76,17.34q-1.18,1.31-2.85,4.76c-1.31,1.55-3.93,3.68-3.93,5.94-1.3.84-1.89,1.07-2.25,2.73-2.5,1.19-3.69,4.16-6.42,4.64-.71,2.97-5.71,4.15-7.49,6.89-3.56.71-7.36,3.56-10.34,5.82-.36-.24-.59-.36-.82-.48-2.02,1.43-2.62,2.74-5.58,2.74-.24.23-.48.47-.59.83-6.89,3.32-14.26,5.94-21.15,8.79-.24,1.79-.47,3.57-.71,5.47q3.92,0,4.87.47c2.97,0,6.89-1.31,9.15.95,0-.47.11-.83.23-1.18.48,0,8.21,0,9.03-.84,6.06-.84,10.94-2.73,16.63-4.87q1.07-1.31,7.13-5.23c.48-.95,3.57-3.92,6.18-5.82.71-1.18.6-1.9,2.13-2.37.48-2.14-1.78-.83,1.91-2.85.83-2.73,4.04-5.47,4.04-7.96,3.21-4.87,5.47-11.18,8.79-16.16q.36.36-.12,8.08c0,.84,1.08,14.02,1.79,14.73Z"/>
    <path class="cls-3" d="M324.61,450.31q-3.68-1.66-4.15-2.37c-2.97-.12-9.27-.71-10.69,2.13-7.25,3.57-12.47,18.89-2.26,22.22.48,1.42,2.14,2.02,3.57,2.38,2.73-.13,9.86-.48,11.17-3.09,5.71-1.42,6.18-10.69,6.42-15.56-.95-.59-1.07-1.66-1.19-2.85l-2.85-2.85ZM316.66,466.94c-1.78.12-3.57.36-5.23.6-8.32-3.09-4.63-8.79-1.42-14.02,3.09-.95,6.05-2.26,9.15-.36q1.42,2.02,2.13,2.37c0,2.02,0,4.05.13,6.18-1.55,1.19-3.92,3.57-4.76,5.23Z"/>
    <rect class="cls-3" x="451.99" y="471.1" width=".47" height=".47"/>
    <rect class="cls-3" x="610.49" y="471.1" width=".36" height=".47"/>
    <path class="cls-3" d="M631.99,454.82c-.95-1.31-4.4-6.42-3.09-8.08-2.26-2.85-.47-6.77-1.31-9.5,0-7.73.48-22.22-5.47-28.16-.47-1.43-.94-2.85-1.31-4.28-.36-.12-.59-.24-.83-.36.36-1.31-.71-2.38-1.55-3.09.36-1.19-1.42-5.23-1.42-7.13-3.09-3.81-1.79-15.33,1.55-18.65-.12-.48-.24-.84-.36-1.19,5.34-5.34-.6-9.03-5.95-6.18-1.54,1.67-3.09,3.33-4.52,5.11-3.56.71-7.6,6.18-10.22,8.55q-.24,1.66-.83,2.02c0,2.5-1.31,8.32-2.38,10.58.12.24.24.47.48.83-.84,5.47.6,7.25,1.78,12.13,1.31-.36,4.04,4.39,7.01,5.23,3.68,3.68,8.67-.24,11.88-2.26,7.25-.48,8.92,13.19,8.08,18.41h1.07c0,1.31-.6,7.02-1.07,7.25.24.24.6.48.95.72q-.36.47-1.07,8.07c-3.21,2.62-2.26,5.11-3.69,8.79-.23,2.97.36,5.82,0,8.56.24.23.48.47.84.71-.24,2.26.95,5.94,3.33,6.65,6.53-3.21,9.98-7.84,8.08-14.73ZM605.26,406.23c-2.38-1.78-5-2.61-5.58-5.94-.36-.13-.71-.24-.95-.36-1.31-7.37,2.37-12.6,9.74-11.18,0,.24.12.59.23.95h1.08c4.99,5.58,3.44,14.26-4.52,16.52Z"/>
    <rect class="cls-3" x="678.93" y="465.16" width=".47" height=".47"/>
    <path class="cls-3" d="M463.28,396.37c2.37-2.37,8.91-3.32,8.91,1.55h1.55c0,.47.12.95.23,1.54.36.24.72.48,1.19.71.59,2.74,3.57,4.76,3.57,7.37,5.11,2.97,6.77,13.67,11.88,17.46,0,1.55,1.55,2.38,2.26,3.81h2.37c0-1.54,0-3.08.12-4.51-.24-4.15-2.38-7.72-2.38-11.52-3.09-2.26-3.8-12-6.77-13.42-.36-1.79-2.02-2.37-2.37-4.4-2.62-.83-2.14-4.52-4.52-5.23-.72-2.84-5.95-6.18-5.71-9.02-5.82-4.76-11.65-9.63-18.41-13.19-.24-.36-.48-.71-.59-.95-2.97-.23-9.98-4.04-12-1.54,1.19,4.75-1.9,9.51,1.19,14.14.36,3.44,1.54,4.04,2.84,7.37,4.16,1.66,8.21,7.25,11.18,10.69q2.49,0,5.47-.83Z"/>
    <path class="cls-3" d="M629.85,317.23c-1.31,1.55-2.02,2.14-2.5,4.04-.59.13-1.18.24-1.65.36-.6,1.07-1.19,2.26-1.79,3.44-3.8,2.5-10.93,11.41-15.44,11.41v-1.55c-2.97-1.78-4.64-5.1-7.25-7.49-.83,3.09-1.66,6.19-2.49,9.39.83,2.26-1.66,18.65,1.31,20.08,1.66-.72,5.1-2.74,5.7-4.52,1.79-.36,6.3-4.28,7.01-5.82.36.12.71.24,1.18.36,1.19-.95,1.19-3.8,3.8-3.44q1.19-.95,1.66-2.26h1.79c0-.6,0-1.07.12-1.55.47-.24.95-.36,1.42-.47,0-.36,0-.72.12-1.08,1.07-.71,2.26-1.31,3.44-1.9,7.25-8.67,17.7-15.09,26.86-21.51,1.89,1.9,3.2,3.69,5.94,4.04q2.26,3.21,3.09,3.57-.12,1.07.36,2.02c.36.12.84.24,1.31.36-.12.48-.12,1.08-.12,1.66.36.24.84.48,1.31.84-.47,1.07,5.82,12.36,7.01,14.13-2.5,2.61-4.64,6.3-7.97,7.96-.95,3.09-4.39,3.21-5.82,6.06-.47.11-.95.24-1.31.36-.12.24-.23.47-.23.83-1.9.24-3.45.95-3.92,2.61-6.66,2.85-13.31,6.18-20.44,7.6-2.5-3.33-3.69-7.6-3.21-11.88-.36-.48-.36-1.55-2.73-6.77h-1.07c-1.08,1.42-3.69,7.36-2.38,8.67-.71,1.18.48,2.97-.95,3.68.12,7.13-.36,7.96-.24,9.98-.95,1.43-1.07,5.82-.47,7.61-1.07,1.55,0,3.68.12,5.46-.23,0-.47.13-.71.24,1.42.95,1.55,9.03,1.79,10.7.36.11.71.24,1.07.35q1.66-.83,2.73-2.26c5.82-1.9,6.3-5.47,12.13-2.14.59,5.35-.95,13.91-1.32,18.78,1.79,2.85,2.74,5.23,5.11,7.6,1.66,4.29,4.99,5.23,9.03,6.78v.83c.71-.6,1.42-1.08,2.13-1.55-.36-2.14-1.18-3.68-2.02-7.02-1.07-1.78-2.37-3.33-2.37-5.46-4.16-5.58,1.19-7.01,1.19-12,.23-.24.47-.36.83-.47-.12-.48-.12-.83-.12-1.19,1.54,0,7.84.6,8.79-.36,3.44.47,8.07,0,11.41-.36,3.09.24,13.07,1.32,15.91-.35,5.71.35,25.55-2.26,24.96,2.13,1.19,1.42,1.55,2.14,1.55,3.92q1.07,1.07,2.13,3.33c2.26.36,4.52.83,6.89,1.31.24-.47.48-.95.72-1.31-.84-1.31-4.28-7.25-5.82-7.25-1.43-2.61-2.14-5.23-4.76-6.77-.12-.71-.24-1.42-.24-2.02-2.49-2.02-7.96-17.82-7.25-20.2-1.31-1.31-1.55-2.37-1.55-4.28-1.66-2.13-2.97-5.46-3.56-8.08-.36-.11-.6-.24-.84-.24-.71-2.14-2.5-4.63-1.9-6.65-.6-.6-1.07-1.19-1.55-1.66-2.13-4.63-9.38-22.22-13.31-23.52-.12-.71-.23-1.42-.23-2.02-4.28-2.97-5.11-8.44-8.68-11.52-3.21,0-7.36-9.03-10.33-10.94-.48-2.26-6.18-7.96-7.97-8.31-.12-.6-.24-1.19-.36-1.67-.36-.12-.71-.12-.95-.12-1.31,2.5-3.33,4.75-3.68,5.82-4.4,1.66-5.71,7.36-9.63,9.98-3.68,4.51-4.87,5.23-10.1,11.75-.23-.12-.47-.12-.71-.12ZM679.4,361.08c-.12.23-.24.47-.24.83,2.74,2.02,5.11,4.04,5.11,7.96.36.12.71.23,1.19.47-.12.36-.24.71-.36,1.07,2.13,1.43,4.86,12.24,4.63,15.1-.84,0-1.66.11-2.5.23-.12-.36-.24-.71-.24-.95-.83.24-1.66.6-2.49.95-1.66-.83-3.92-.23-5.23-1.07-.71.71-16.87-.47-18.07-1.19-.23.12-.47.24-.59.48-2.85-1.9-7.25.36-10.7-1.31q-1.31.47-3.8.36c.6-3.92,6.53-10.1,10.22-11.41-.12-.47-.12-.95-.12-1.31,2.02-1.31,2.37-2.14,3.68-2.61,3.09-4.63,14.14-8.68,19.49-7.6Z"/>
    <rect class="cls-3" x="690.8" y="422.38" width=".47" height=".48"/>
    <path class="cls-3" d="M235.03,415.85c.11.12.24.36.36.59h1.19c-.48-1.42-2.26-1.89-3.33-2.97,0,.72,0,1.43.13,2.26.47,0,1.06,0,1.66.12Z"/>
    <path class="cls-3" d="M232.06,413.96c-.24-.13-.48-.24-.59-.24v.84c.12-.24.36-.48.59-.59Z"/>
    <rect class="cls-3" x="230.28" y="412.17" width=".72" height=".71"/>
    <path class="cls-3" d="M711.36,353.6c.12.59.24,1.31.36,2.02,3.21,3.21,4.4,7.6,6.42,11.76,1.78,1.06,3.44,3.44,3.21,5.58,1.54,1.31,2.61,2.73,3.2,4.76,4.16,1.31,4.76,15.56,6.18,19.36q1.67.12,3.69.83c.12-.12.36-.24.6-.36.71-4.28,1.31-9.98-.48-14.02.12-.47.24-.95.36-1.31-1.31-1.89-1.78-3.09-2.02-5.34-.47-.12-.83-.12-1.19-.12-.12-1.08-.36-1.55-1.07-2.26v-2.14c-.47-.12-.95-.23-1.31-.36-.71-3.09-3.68-5.47-5.82-7.96.71-.95-2.61-8.56-3.57-9.74,0-3.92-3.21-7.37-5.23-10.46-2.13-.24-3.57.23-5.47.71-.36,2.61-.47,7.73,2.14,9.03Z"/>
    <path class="cls-3" d="M333.17,357.87c0-.72,0-1.31.12-1.9,1.66-.48,5.82-4.99,5.82-6.77q-.84.11-5.23-1.9-.71.84-.95,2.61c-1.19,1.19-3.57,5.11-3.57,6.77-2.5,1.07-4.99,1.07-7.72,1.07-.72-2.61-5.71-9.62-8.21-11.04-.12-.72-3.68-6.89-4.28-7.13-.95-5-8.79-5.35-12.83-5.47,1.07,2.37,5.23,8.79,7.72,9.98,1.19,2.5,5,3.8,5,6.66.47,0,.95,0,1.42.12,1.43,2.03,7.72,8.21,4.28,10.81q.36.72,0,5.82h2.37c.95-1.31,2.03-2.61,3.09-3.92,3.32,1.66,1.19,4.99,2.14,8.08-.84,1.19-1.55,2.5-2.26,3.8-1.55,0-2.03-.84-2.98-1.79v-1.31c-1.07-.47-1.54-1.66-2.73-1.66,0,4.28,3.45,7.49,6.89,10.1,1.31-1.07,2.97-4.4,3.57-4.87,2.02,0,2.97,2.5,4.4,3.56.83-.6,1.66-1.19,2.49-1.66.36-2.26-.71-9.63,0-10.34-.36-3.21.12-6.29.36-9.5.35-.12.72-.12,1.07-.12Z"/>
    <rect class="cls-3" x="586.72" y="373.67" width=".36" height=".48"/>
    <path class="cls-3" d="M588.39,331.97q-1.07-.47-4.39-3.57c-14.74-2.49-12.24,16.64-10.22,25.07-4.75,3.57-2.26,10.46-1.54,15.09,2.49,1.55,3.09,2.98,6.05,3.69.12.47.24.95.48,1.42.59-.23,1.3-.47,2.02-.6,10.81,4.04,11.05-15.8,8.91-21.27.12-.71.24-1.31.36-1.9,3.68-4.99.71-13.07-1.66-17.94ZM585.66,365.48c-1.66.84-2.98.95-4.52,1.55q-.95-.71-2.14-.71c-.12-.6-.23-1.19-.36-1.66-4.28-2.85-.95-11.53,5-9.39q1.31,1.78,2.73,2.85.12,2.38-.71,7.37ZM586.84,347.29c-1.54,1.07-2.25,1.9-4.16,2.26-3.44-2.02-5.81-4.04-6.88-7.96.35-4.87.94-9.26,6.88-9.26,1.08.59,2.14,1.18,3.21,1.78,0,.36,0,.71.12,1.07.36.11.71.24,1.18.35q.84,4.05.84,7.02c-1.19,1.18-1.07,2.97-1.19,4.75Z"/>
    <rect class="cls-3" x="454.36" y="364.65" width=".48" height=".36"/>
    <path class="cls-3" d="M501.65,315.81c-4.15-5.58-8.08-7.61-15.44-6.89-1.31,2.02-5,1.78-6.06,3.92-7.72,5.34-4.75,9.15-5.46,16.86.47.6.95,1.19,1.42,1.79.6,3.57,3.92,3.8,6.77,5.82,1.78-1.19,7.13-.71,8.91-.71,8.68-4.28,11.41-11.18,9.86-20.79ZM496.78,321.87c-.23,0-.47.12-.71.24,0,.48,0,1.07.12,1.66q-2.97,3.21-3.8,3.56v.84h-.71v.83c-1.55,0-2.14-.12-3.57.71-3.69-.47-4.63-1.06-7.25-3.32v-2.73c-.23-.12-.47-.24-.71-.24,0-3.57,1.31-4.04,2.14-6.53,1.07-.47,1.31-1.19,1.66-2.26,2.49-1.18,4.99-2.37,7.84-2.02q1.42,1.07,3.44,1.66c0,2.85,1.79,4.16,1.55,7.6Z"/>
    <path class="cls-3" d="M457.1,308.92c.23,2.26,2.02,7.25,4.15,8.67,1.08-.12,2.14-.24,3.21-.36.6-1.07,1.31-2.61,2.85-2.37,2.73-1.78,4.75-7.73,7.37-10.34,1.18-3.92,2.62-6.65,5.22-9.5-.11-.24-.23-.48-.36-.71,2.26-3.45,4.52-7.49,6.06-11.17,4.16-6.3,8.91-13.07,12.71-19.49h.83c.72-2.26,2.74-5.94,5.59-5.94.47,2.14,1.42,3.92,2.13,5.94,1.43,9.5,1.66,19.12,3.33,28.51-.24,0-.48.13-.72.24l.36,2.5h.84c-.71,4.28.95,8.2.47,12.23,1.79,1.79,2.85,18.3,2.74,22.7,1.54.95,1.66,1.42,1.9,3.09.83.24,1.78.48,2.73.84,3.92-.6,5.47-.48,8.44-3.45,1.66-4.75,6.41-12,6.41-16.99-1.42-.11-2.85-.11-4.28-.11-.12.11-.23.36-.36.59-1.18-.12-2.37-.24-3.44-.24q-1.43-3.09-2.61-4.4c-.95-3.92-10.34-30.53-7.01-33.86-.36-.47-.71-.83-.95-1.18.84-1.19.6-2.97-.36-3.92.84-1.66.36-11.17.36-13.54q.84-1.79.84-3.69c4.04-5.94,9.62-11.17,16.15-14.13,1.55-2.26,3.09-3.57,5.35-4.87-.6-1.19,2.02-2.37,2.61-2.73,1.18-2.62,3.44-4.76,3.92-7.85-1.79-.36-2.85-.47-4.28-1.54-7.37,0-14.97-4.28-22.7-4.76-1.07-1.07-22.22-5.23-24.83-3.92q0,1.06-.47,1.9c.12.12.23.36.47.6,0,5.7,2.61,11.05,4.04,16.51,1.9,2.97,7.01,14.02,2.74,16.16-1.55,4.28-5.82,6.89-7.25,11.29-2.5,2.14-4.04,7.25-6.42,8.43-.12.36-.12.72-.12,1.08-1.42.95-2.73,1.9-4.04,2.97-.71,2.13-6.18,10.1-8.55,10.1-.71,3.92-6.77,4.63-6.77,7.84-.6,0-1.07,0-1.55.12-.12.36-.23.71-.23,1.08-3.57,1.54-6.89,4.27-10.46,5.22.6,4.4,1.79,8.21,2.74,12.48h1.19ZM531.59,225.63c.12,0,.36.13.6.24-.24.12-.48.24-.6.47v-.71ZM510.57,225.75c4.86.59,9.74,2.13,14.49,2.84v1.43c-4.04,3.44-7.01,7.73-11.41,11.05-.12.36-.24.71-.24,1.18h-1.18c-1.08-1.55-3.21-14.97-1.66-16.51Z"/>
    <path class="cls-3" d="M428.82,232.53c.6.83.84,3.09,1.55,4.63-.84,5.82,2.02,12.12,2.37,18.06.95,5.11,2.37,11.88,1.54,17.11.6,3.33,2.37,24.11,0,26.49.12.11.36.24.6.47,0,3.92-3.57,6.06-6.53,8.32.71,3.8,6.05,7.6,6.05,10.81,2.97.71,5.47,7.73,7.84,10.1,0,1.9,1.9,3.81,3.45,4.75,3.8-1.07-.59-36.11.47-42.18-.24-.24-.71-14.86.11-15.68-2.02-11.29-1.31-23.76-2.02-35.17.12-.24.24-.47.48-.59-1.07-1.42.12-3.44-1.31-4.87-.6-8.91-1.19-17.82-1.66-26.61q-1.31-.24-6.18.12c0-.36.11-.71.24-.95-2.27.6-6.9.6-9.87,1.19.12.12.36.24.59.47.36,6.9,3.33,17.83,2.26,23.53ZM444.86,327.81h.47v.36h-.47v-.36Z"/>
    <rect class="cls-3" x="444.86" y="327.81" width=".47" height=".36"/>
    <rect class="cls-3" x="455.19" y="324.96" width=".36" height=".47"/>
    <path class="cls-3" d="M537.42,278.51c-.47,5.23,5.58,9.98,9.98,12.12.95,3.44,7.25,6.18,10.46,6.89.12.24.23.6.36.95q.94-.24,3.09.36v.83q1.42-.23,3.57.36c5.7-.94,15.57.36,19.6-4.87q.48-8.55.95-9.15c-1.07-2.61-1.19-5.58-1.42-8.43.23-.13.47-.24.71-.36-.24-.12-.48-.23-.71-.23-.36-2.5-1.9-5.11-1.9-7.84,3.57-2.5,12.83,7.6,16.75,8.91.12.59.24,1.19.48,1.78,3.2,1.08,3.44.72,6.05,3.45.6.12,1.19.24,1.79.36.12.48.23.95.47,1.42.48,0,.95,0,1.55.12.83,1.66,4.39,2.97,6.18,3.57,3.68-2.74,16.99-1.43,19.01-5.47-1.31-.84-2.02-2.14-3.57-3.09-.12-.59-.12-1.08-.12-1.55-3.09-.59-7.37-4.51-9.15-7.01-1.08.48-8.44-6.89-10.58-6.89-.47-1.42-1.42-1.78-2.85-2.02-1.55-2.37-3.09-3.09-5.59-4.52-4.39-5.11-11.99-7.84-17.22-12.59-2.14,0-9.74,2.37-11.29,3.91h-2.26c-3.09,3.09-8.68,1.91-7.84,7.02.24.13.48.24.71.36q.84,2.74.84,4.52c3.57,3.09,1.78,14.38,1.54,17.58-5.34,6.42-12.47,5.82-20.19,3.57-.12-.36-.24-.71-.36-.95-3.56-1.07-4.86-1.42-7.48-4.04-.6.23-1.08.59-1.55.95Z"/>
    <path class="cls-3" d="M383.43,235.02q-1.07-.24-1.66.36-1.08-.12-2.85.36c-1.55,1.55-14.86,6.3-17.7,6.3-5.23,2.37-6.9,3.68-10.58,5.46-3.21.36-6.29,1.9-8.55,4.16-1.07,4.28-4.04,10.7-1.42,14.97h2.02c4.39-3.21,13.54-2.61,18.65-2.38,1.31.47,2.61.95,3.92,1.55,1.66,2.02,3.32,4.04,5.11,6.18-.24,1.3-.13,1.65.59,2.73,0,8.2-10.09,9.5-15.32,13.66q-.6-.13-2.03.59c0,2.5.36,3.57.95,5.58,5.94-1.18,12.6-1.89,18.07-4.63,5.46.59,13.3-3.33,16.75-7.49,3.21-1.54,6.18-7.24,7.02-10.93,0-7.25-9.03-9.5-14.38-11.65-.47,0-.95,0-1.31.12-.23-.48-.47-.95-.71-1.31h-2.85c-.23-.36-.47-.6-.59-.84-2.62-.12-4.29-.71-6.53-1.31.83-1.42,12.59-4.87,14.85-4.87,6.65-3.33,16.16-3.09,22.57-6.89,2.74-4.76,2.97-13.07,4.04-18.54,0,0-26.86,6.3-28.04,8.79Z"/>
    <path class="cls-3" d="M342.32,234.9c.11.12.24.36.36.59,1.78-.83,8.2-1.07,8.67-1.78,3.69-.95,7.37-4.99,10.82-4.99v-1.08c4.28-.83,7.72-7.49,12.71-8.31.95-2.85,10.33-5.11,12.35-4.16.12-.23.36-.36.59-.47,2.61.12,5.23.24,7.97.36,1.31-1.66,1.78-2.97,2.02-5.34-2.73-.13-19.84-2.5-21.04-.6-9.38,2.02-12.71,10.33-21.14,13.9-4.29,4.28-21.99,2.03-17.11,11.76,1.19,0,2.5,0,3.8.13ZM393.77,212.09h.83v.47h-.83v-.47Z"/>
    <path class="cls-3" d="M532.19,225.87c-.24-.11-.48-.24-.6-.24v.71c.12-.23.36-.36.6-.47Z"/>
    <rect class="cls-3" x="393.77" y="212.09" width=".83" height=".47"/>
  </g>
</svg>