<svg width="228" height="158" viewBox="0 0 228 158" fill="none" xmlns="http://www.w3.org/2000/svg">
<g clip-path="url(#clip0_2198_11)">
<path fill-rule="evenodd" clip-rule="evenodd" d="M248.467 107.375L236.431 115.005C219.767 124.567 186.438 143.692 158.632 148.849C130.827 154.005 108.546 145.194 87.8433 132.391C67.1404 119.589 48.0159 102.796 30.4697 82.0113C12.9234 61.227 -3.04451 36.4518 -11.0285 24.0642L-19.0125 11.6766L-52.1566 95.4858L-41.0161 99.8915C-29.8755 104.297 -7.59439 113.109 14.6867 121.92C36.9679 130.732 59.249 139.544 81.5301 148.355C103.811 157.167 126.092 165.978 148.373 174.79C170.655 183.601 192.936 192.413 204.076 196.819L211.875 199.903L248.467 107.375Z" fill="#BEE1A5"/>
<path fill-rule="evenodd" clip-rule="evenodd" d="M14.1091 4.47803L19.7257 22.852C25.3422 41.226 36.5753 77.9739 53.3323 100.754C70.0894 123.533 92.3706 132.345 116.23 137.166C140.089 141.986 165.527 142.816 192.543 139.655C219.559 136.494 224.975 134.2 239.272 130.624L214.081 194.323C202.94 189.918 199.041 188.376 176.76 179.564C154.479 170.752 132.198 161.941 109.917 153.129C87.6357 144.318 65.3546 135.506 43.0734 126.695C20.7923 117.883 -1.4888 109.072 -12.6294 104.666L-23.7699 100.26L14.1091 4.47803Z" fill="#DFF0D2" stroke="white"/>
<path fill-rule="evenodd" clip-rule="evenodd" d="M9.08463 54.6458C14.7012 73.0198 17.6795 83.4054 34.4366 106.185C51.1937 128.965 73.4748 137.777 97.3343 142.597C121.194 147.418 146.631 148.248 173.647 145.086C200.663 141.925 225.432 132.23 239.73 128.654L209.3 206.412C198.16 202.006 179.778 194.737 157.497 185.925C135.216 177.114 112.567 169.232 90.6533 159.491C68.3722 150.679 46.0911 141.868 23.81 133.056C1.52884 124.245 -4.59847 121.821 -15.739 117.416L9.08463 54.6458Z" fill="#1874A5" stroke="white"/>
<path fill-rule="evenodd" clip-rule="evenodd" d="M9.78662 52.8706C15.4032 71.2446 25.1534 100.341 41.9104 123.12C58.6675 145.9 80.9487 154.712 104.808 159.532C128.667 164.353 154.105 165.183 181.121 162.021C208.137 158.86 216.701 155.123 230.998 151.547L209.3 206.412C198.16 202.006 192.311 199.693 170.03 190.882C147.749 182.07 125.189 173.148 102.908 164.337C80.6269 155.525 58.9028 146.934 36.6217 138.122C14.3405 129.311 -4.59841 121.821 -15.739 117.415L9.78662 52.8706Z" fill="#239BD0" stroke="white"/>
<rect x="-14.2422" y="116.197" width="240.75" height="47.4217" transform="rotate(21.5625 -14.2422 116.197)" fill="#239BD0"/>
</g>
<defs>
<clipPath id="clip0_2198_11">
<rect width="228" height="158" fill="white"/>
</clipPath>
</defs>
</svg>
