<svg width="601" height="147" viewBox="0 0 601 147" fill="none" xmlns="http://www.w3.org/2000/svg">
<path fill-rule="evenodd" clip-rule="evenodd" d="M601.093 8.54688L573.047 27.4403C545.002 46.3337 488.911 84.1204 432.82 103.014C376.729 121.907 320.637 121.907 264.546 116.509C208.455 111.111 152.364 100.315 96.2732 84.1204C40.1821 67.9261 -15.909 46.3337 -43.9545 35.5374L-72.0001 24.7412V138.102H-43.9545C-15.909 138.102 40.1821 138.102 96.2732 138.102C152.364 138.102 208.455 138.102 264.546 138.102C320.637 138.102 376.729 138.102 432.82 138.102C488.911 138.102 545.002 138.102 573.047 138.102H601.093V8.54688Z" fill="#BEE1A5"/>
<path fill-rule="evenodd" clip-rule="evenodd" d="M-6.09291 1L21.9526 19.8934C49.9982 38.7868 106.089 76.5736 162.18 95.467C218.271 114.36 274.362 114.36 330.454 108.962C386.545 103.564 442.636 92.7679 498.727 76.5736C554.818 60.3792 610.909 38.7868 638.955 27.9906L667 17.1943V130.555H638.955C610.909 130.555 554.818 130.555 498.727 130.555C442.636 130.555 386.545 130.555 330.454 130.555C274.362 130.555 218.271 130.555 162.18 130.555C106.089 130.555 49.9982 130.555 21.9526 130.555H-6.09291V1Z" fill="#DFF0D2" stroke="white"/>
<path fill-rule="evenodd" clip-rule="evenodd" d="M-42.5521 16.0938L-14.5066 34.9871C13.539 53.8805 69.6301 91.6673 125.721 110.561C181.812 129.454 237.903 129.454 293.994 124.056C350.085 118.658 406.177 107.862 462.268 91.6673C518.359 75.473 573.048 48.9017 601.093 38.1055L626.334 23.0117L630.541 145.648H602.495C574.45 145.648 518.359 145.648 462.268 145.648C406.177 145.648 350.085 145.648 293.994 145.648C237.903 145.648 181.812 145.648 125.721 145.648C69.6301 145.648 13.539 145.648 -14.5066 145.648H-42.5521V16.0938Z" fill="#1874A5" stroke="white"/>
<path fill-rule="evenodd" clip-rule="evenodd" d="M-11.7021 32.4453L16.3435 51.3387C44.389 70.2321 100.48 108.019 156.571 126.912C212.662 145.806 268.753 145.806 324.844 140.408C380.935 135.009 437.027 124.213 493.118 108.019C549.209 91.8245 605.3 70.2321 633.345 59.4359L661.391 48.6396V162H633.345C605.3 162 549.209 162 493.118 162C437.027 162 380.935 162 324.844 162C268.753 162 212.662 162 156.571 162C100.48 162 44.389 162 16.3435 162H-11.7021V32.4453Z" fill="#239BD0" stroke="white"/>
</svg>
